<?xml version="1.0" encoding="utf-8"?>
<!-- Generator: Adobe Illustrator 16.0.0, SVG Export Plug-In . SVG Version: 6.00 Build 0)  -->
<!DOCTYPE svg PUBLIC "-//W3C//DTD SVG 1.1//EN" "http://www.w3.org/Graphics/SVG/1.1/DTD/svg11.dtd">
<svg version="1.1" id="Layer_1" xmlns="http://www.w3.org/2000/svg" xmlns:xlink="http://www.w3.org/1999/xlink" x="0px" y="0px"
	 width="46px" height="31.285px" viewBox="0 0 46 31.285" enable-background="new 0 0 46 31.285" xml:space="preserve">
<g>
	<g>
		<path fill="#F1EFEF" d="M7.452,29.166H6.635L5.967,27.4H3.295l-0.629,1.766H1.845l2.417-6.302h0.765L7.452,29.166z M5.725,26.736
			l-0.988-2.685c-0.032-0.088-0.064-0.229-0.097-0.422H4.622c-0.029,0.178-0.063,0.318-0.101,0.422l-0.98,2.685H5.725z"/>
		<path fill="#F1EFEF" d="M10.647,25.396c-0.126-0.096-0.308-0.145-0.545-0.145c-0.308,0-0.564,0.145-0.771,0.435
			c-0.206,0.291-0.31,0.686-0.31,1.188v2.293H8.301v-4.499h0.721v0.927h0.018c0.103-0.316,0.26-0.563,0.471-0.741
			c0.211-0.176,0.446-0.266,0.707-0.266c0.188,0,0.331,0.021,0.431,0.063V25.396z"/>
		<path fill="#F1EFEF" d="M13.795,25.396c-0.127-0.096-0.309-0.145-0.545-0.145c-0.309,0-0.564,0.145-0.771,0.435
			c-0.207,0.291-0.311,0.686-0.311,1.188v2.293h-0.721v-4.499h0.721v0.927h0.018c0.104-0.316,0.26-0.563,0.471-0.741
			c0.211-0.176,0.447-0.266,0.707-0.266c0.188,0,0.332,0.021,0.432,0.063V25.396z"/>
		<path fill="#F1EFEF" d="M17.816,29.166h-0.721v-0.703h-0.018c-0.314,0.539-0.775,0.809-1.385,0.809
			c-0.448,0-0.799-0.118-1.053-0.355s-0.38-0.553-0.38-0.945c0-0.84,0.495-1.33,1.485-1.467l1.35-0.189
			c0-0.765-0.31-1.147-0.928-1.147c-0.542,0-1.031,0.186-1.468,0.554v-0.737c0.442-0.281,0.952-0.422,1.529-0.422
			c1.058,0,1.587,0.559,1.587,1.679V29.166z M17.096,26.891l-1.086,0.148c-0.334,0.047-0.586,0.131-0.756,0.248
			c-0.17,0.119-0.255,0.33-0.255,0.631c0,0.221,0.078,0.4,0.235,0.539c0.156,0.139,0.365,0.209,0.626,0.209
			c0.357,0,0.652-0.125,0.886-0.377c0.232-0.25,0.35-0.566,0.35-0.951V26.891z"/>
		<path fill="#F1EFEF" d="M22.927,29.166h-0.721V26.6c0-0.955-0.349-1.433-1.046-1.433c-0.36,0-0.658,0.137-0.895,0.407
			c-0.236,0.271-0.354,0.613-0.354,1.025v2.566h-0.721v-4.499h0.721v0.746h0.018c0.34-0.568,0.832-0.852,1.477-0.852
			c0.492,0,0.869,0.158,1.129,0.477c0.262,0.318,0.392,0.776,0.392,1.378V29.166z"/>
		<path fill="#F1EFEF" d="M28.144,28.807c0,1.652-0.791,2.479-2.373,2.479c-0.557,0-1.043-0.105-1.459-0.316v-0.721
			c0.507,0.281,0.99,0.422,1.45,0.422c1.107,0,1.661-0.59,1.661-1.768V28.41h-0.018c-0.343,0.574-0.858,0.861-1.547,0.861
			c-0.56,0-1.011-0.199-1.352-0.6s-0.512-0.937-0.512-1.61c0-0.765,0.184-1.372,0.552-1.824c0.367-0.451,0.871-0.676,1.51-0.676
			c0.605,0,1.056,0.242,1.349,0.729h0.018v-0.623h0.721V28.807z M27.423,27.132v-0.663c0-0.357-0.121-0.664-0.362-0.919
			c-0.242-0.255-0.543-0.383-0.903-0.383c-0.445,0-0.794,0.162-1.046,0.485c-0.252,0.324-0.378,0.777-0.378,1.361
			c0,0.5,0.121,0.901,0.362,1.201c0.242,0.301,0.563,0.451,0.961,0.451c0.404,0,0.732-0.145,0.986-0.432
			C27.296,27.947,27.423,27.58,27.423,27.132z"/>
		<path fill="#F1EFEF" d="M33.237,27.097h-3.177c0.012,0.501,0.146,0.888,0.404,1.16s0.611,0.409,1.063,0.409
			c0.508,0,0.973-0.168,1.398-0.502v0.678c-0.396,0.287-0.919,0.43-1.569,0.43c-0.636,0-1.136-0.203-1.499-0.613
			c-0.363-0.408-0.545-0.982-0.545-1.725c0-0.699,0.199-1.27,0.596-1.712c0.396-0.439,0.891-0.66,1.479-0.66
			c0.59,0,1.045,0.189,1.367,0.57c0.322,0.382,0.483,0.91,0.483,1.587V27.097z M32.499,26.486c-0.003-0.416-0.103-0.74-0.302-0.972
			c-0.197-0.231-0.472-0.348-0.823-0.348c-0.34,0-0.628,0.122-0.866,0.365c-0.236,0.243-0.383,0.562-0.439,0.954H32.499z"/>
	</g>
	<g>
		<polygon fill="#F1EFEF" points="25.307,15.084 25.307,3.732 22.693,3.732 22.693,15.084 20.986,15.084 24,18.098 27.014,15.084 		
			"/>
		<polygon fill="#F1EFEF" points="14.379,3.014 11.363,0 8.35,3.014 10.059,3.014 10.059,14.367 12.67,14.367 12.67,3.014 		"/>
		<rect x="14.416" y="3.732" fill="#F1EFEF" width="3.172" height="2.425"/>
		<rect x="14.416" y="7.604" fill="#F1EFEF" width="5.039" height="2.426"/>
		<rect x="14.416" y="11.475" fill="#F1EFEF" width="6.531" height="2.426"/>
	</g>
</g>
</svg>
