<?xml version="1.0" encoding="utf-8"?>
<!-- Generator: Adobe Illustrator 16.0.0, SVG Export Plug-In . SVG Version: 6.00 Build 0)  -->
<!DOCTYPE svg PUBLIC "-//W3C//DTD SVG 1.1//EN" "http://www.w3.org/Graphics/SVG/1.1/DTD/svg11.dtd">
<svg version="1.1" id="Layer_1" xmlns="http://www.w3.org/2000/svg" xmlns:xlink="http://www.w3.org/1999/xlink" x="0px" y="0px"
	 width="28px" height="32.945px" viewBox="0 0 28 32.945" enable-background="new 0 0 28 32.945" xml:space="preserve">
<g>
	<g>
		<path fill="#F1EFEF" d="M4.703,30.563c-0.467,0.246-1.047,0.369-1.74,0.369c-0.896,0-1.615-0.288-2.154-0.865S0,28.732,0,27.795
			c0-1.008,0.304-1.822,0.91-2.443s1.375-0.932,2.307-0.932c0.598,0,1.094,0.086,1.486,0.259v0.786
			c-0.451-0.252-0.949-0.377-1.494-0.377c-0.725,0-1.311,0.241-1.76,0.725c-0.451,0.483-0.676,1.129-0.676,1.938
			c0,0.768,0.211,1.38,0.631,1.836c0.42,0.455,0.973,0.683,1.654,0.683c0.633,0,1.182-0.141,1.645-0.422V30.563z"/>
		<path fill="#F1EFEF" d="M7.788,30.932c-0.665,0-1.196-0.209-1.593-0.631C5.798,29.881,5.6,29.324,5.6,28.629
			c0-0.756,0.207-1.346,0.619-1.771c0.414-0.425,0.972-0.638,1.675-0.638c0.671,0,1.194,0.207,1.571,0.62
			c0.376,0.413,0.564,0.985,0.564,1.718c0,0.719-0.203,1.293-0.608,1.725C9.015,30.717,8.471,30.932,7.788,30.932z M7.841,26.828
			c-0.463,0-0.829,0.157-1.099,0.473c-0.27,0.314-0.404,0.748-0.404,1.303c0,0.533,0.137,0.953,0.408,1.261
			c0.273,0.308,0.638,0.462,1.095,0.462c0.466,0,0.824-0.151,1.074-0.453c0.251-0.302,0.376-0.73,0.376-1.287
			c0-0.563-0.125-0.996-0.376-1.301C8.665,26.98,8.307,26.828,7.841,26.828z"/>
		<path fill="#F1EFEF" d="M11.938,30.176H11.92v2.721h-0.721v-6.57h0.721v0.791h0.018c0.354-0.598,0.873-0.896,1.555-0.896
			c0.58,0,1.033,0.202,1.358,0.605c0.325,0.402,0.487,0.941,0.487,1.619c0,0.752-0.183,1.355-0.549,1.809
			c-0.366,0.451-0.867,0.678-1.503,0.678C12.703,30.932,12.254,30.68,11.938,30.176z M11.92,28.361v0.629
			c0,0.371,0.121,0.688,0.361,0.947c0.242,0.258,0.549,0.389,0.922,0.389c0.436,0,0.777-0.168,1.025-0.502s0.371-0.798,0.371-1.393
			c0-0.501-0.115-0.894-0.347-1.178s-0.545-0.426-0.94-0.426c-0.419,0-0.756,0.146-1.011,0.438
			C12.047,27.557,11.92,27.922,11.92,28.361z"/>
		<path fill="#F1EFEF" d="M20.09,26.326l-2.07,5.221c-0.369,0.932-0.888,1.398-1.556,1.398c-0.188,0-0.345-0.02-0.47-0.058v-0.646
			c0.154,0.053,0.297,0.078,0.426,0.078c0.363,0,0.636-0.217,0.817-0.65l0.36-0.852l-1.758-4.492h0.8l1.218,3.463
			c0.014,0.045,0.045,0.158,0.092,0.344h0.026c0.015-0.07,0.044-0.182,0.088-0.334l1.278-3.473H20.09z"/>
	</g>
	<path fill="#F1EFEF" d="M19.232,10.314l0.02-0.016l-6.795-6.961l-0.012,0.009V3.328h-1.693L7.516,0.01L7.512,0.012V0H0.457v16.439
		h4.922v-1.342h-3.48V1.342h4.963l1.943,1.986H5.391v16.439h13.891v-9.453H19.232z M12.445,5.32l4.875,4.994h-4.875V5.32z
		 M17.84,18.426H6.83V4.67h4.176v5.645v1.342h1.439h5.395V18.426z"/>
</g>
</svg>
