<?xml version="1.0" encoding="utf-8"?>
<!-- Generator: Adobe Illustrator 16.0.0, SVG Export Plug-In . SVG Version: 6.00 Build 0)  -->
<!DOCTYPE svg PUBLIC "-//W3C//DTD SVG 1.1//EN" "http://www.w3.org/Graphics/SVG/1.1/DTD/svg11.dtd">
<svg version="1.1" id="Layer_1" xmlns="http://www.w3.org/2000/svg" xmlns:xlink="http://www.w3.org/1999/xlink" x="0px" y="0px"
	 width="24px" height="37px" viewBox="0 0 24 37" enable-background="new 0 0 24 37" xml:space="preserve">
<g>
	<g>
		<path fill="#F1EFEF" d="M7.652,30.714c-0.466,0.246-1.046,0.369-1.74,0.369c-0.896,0-1.614-0.289-2.153-0.866
			S2.95,28.882,2.95,27.945c0-1.008,0.304-1.822,0.909-2.443c0.607-0.621,1.376-0.932,2.308-0.932c0.598,0,1.093,0.087,1.485,0.26
			v0.787c-0.451-0.252-0.949-0.379-1.494-0.379c-0.724,0-1.311,0.242-1.76,0.726c-0.45,0.483-0.675,1.13-0.675,1.938
			c0,0.768,0.21,1.379,0.631,1.834c0.42,0.456,0.972,0.684,1.654,0.684c0.633,0,1.181-0.141,1.644-0.422V30.714z"/>
		<path fill="#F1EFEF" d="M12.496,30.978h-0.721v-0.713h-0.018c-0.299,0.545-0.762,0.818-1.389,0.818
			c-1.072,0-1.609-0.639-1.609-1.916v-2.689h0.717v2.574c0,0.949,0.363,1.424,1.09,1.424c0.352,0,0.641-0.129,0.867-0.389
			c0.228-0.26,0.342-0.598,0.342-1.018v-2.592h0.721V30.978z"/>
		<path fill="#F1EFEF" d="M16.055,30.933c-0.17,0.094-0.394,0.141-0.673,0.141c-0.787,0-1.182-0.439-1.182-1.318v-2.662h-0.773
			v-0.615h0.773v-1.1l0.721-0.232v1.332h1.134v0.615h-1.134v2.535c0,0.302,0.051,0.518,0.154,0.646
			c0.102,0.129,0.271,0.193,0.51,0.193c0.182,0,0.338-0.051,0.47-0.15V30.933z"/>
	</g>
	<g>
		<path fill-rule="evenodd" clip-rule="evenodd" fill="#F1EFEF" d="M18.029,5.902c-0.135-0.082-0.27-0.164-0.404-0.246
			c-1.238-0.529-2.205,0.009-3.113,0.791c-1.232,1.062-2.65,1.668-4.287,1.733c-0.049,0.001-0.123-0.046-0.143-0.09
			C9.306,6.484,9.414,4.83,9.748,3.137C10.033,1.701,9.662,0.8,8.605,0.261C7.546-0.28,6.65,0.059,5.904,0.917
			c-0.086,0.143-0.172,0.285-0.26,0.428C5.267,2.287,5.267,3.199,5.97,3.99c0.52,0.584,1.201,0.766,1.979,0.62
			c0.109-0.021,0.367,0.157,0.367,0.245c0.02,1.262,0.004,2.521-0.01,3.781c0,0.036-0.07,0.084-0.117,0.104
			c-2.217,0.977-4.455,1.904-6.643,2.942c-1.051,0.498-1.596,1.439-1.543,2.654c0.016,0.01,0.031,0.02,0.047,0.029
			c2.771-1.143,5.539-2.286,8.313-3.422c0.035-0.014,0.145,0.053,0.146,0.089c0.266,2.981,0.525,5.96,0.783,8.942
			c0.047,0.027,0.096,0.057,0.143,0.086c1.391-0.748,1.67-1.99,1.561-3.43c-0.166-2.154-0.303-4.311-0.447-6.466
			c-0.004-0.05,0.014-0.129,0.047-0.147c1.119-0.592,2.236-1.187,3.367-1.755c0.1-0.052,0.395,0.036,0.412,0.107
			c0.521,2.011,2.787,2.03,3.816,0.804c0.053-0.063,0.113-0.119,0.17-0.18c0.082-0.134,0.164-0.27,0.246-0.404
			C19.039,7.56,18.894,6.654,18.029,5.902z M7.027,3.529C6.361,3.123,6.175,2.291,6.599,1.601c0.365-0.598,1.072-0.785,1.645-0.438
			c0.648,0.395,0.877,1.354,0.48,2.008C8.369,3.759,7.656,3.91,7.027,3.529z M8.824,10.408C8.392,10.146,8.3,9.511,8.617,8.989
			c0.318-0.522,0.924-0.733,1.355-0.472s0.523,0.897,0.207,1.42C9.863,10.458,9.255,10.669,8.824,10.408z M15.771,8.784
			c-0.617-0.38-0.811-1.091-0.453-1.675c0.396-0.652,1.367-0.89,2.014-0.492c0.561,0.344,0.715,1.072,0.352,1.668
			C17.267,8.968,16.429,9.187,15.771,8.784z"/>
		
			<ellipse transform="matrix(0.5198 -0.8543 0.8543 0.5198 -3.5716 12.572)" fill-rule="evenodd" clip-rule="evenodd" fill="#F1EFEF" cx="9.397" cy="9.463" rx="0.393" ry="0.324"/>
	</g>
</g>
</svg>
