<?xml version="1.0" encoding="utf-8"?>
<!-- Generator: Adobe Illustrator 16.0.0, SVG Export Plug-In . SVG Version: 6.00 Build 0)  -->
<!DOCTYPE svg PUBLIC "-//W3C//DTD SVG 1.1//EN" "http://www.w3.org/Graphics/SVG/1.1/DTD/svg11.dtd">
<svg version="1.1" id="Layer_1" xmlns="http://www.w3.org/2000/svg" xmlns:xlink="http://www.w3.org/1999/xlink" x="0px" y="0px"
	 width="8.541px" height="12.23px" viewBox="0 0 8.541 12.23" enable-background="new 0 0 8.541 12.23" xml:space="preserve">
<g>
	<g>
		<text transform="matrix(1 0 0 1 0.2529 11.2568)" fill="#F1F0F0" font-family="'SegoeUI'" font-size="2.88">Delete</text>
	</g>
	<path fill="#FFFFFF" d="M4.734,3.186C5.859,1.88,6.971,1.077,7.382,0.75C6.233,1.027,5.16,1.804,4.268,2.667
		C3.132,1.465,2.011,0.673,2.011,0.673l-0.64,0.88c0.914,0.492,1.694,1.075,2.357,1.669C2.543,4.51,1.786,5.798,1.786,5.798
		l0.931,0.563c0.439-1.01,0.99-1.882,1.563-2.622C5.54,5.004,6.272,6.225,6.57,6.673C6.377,5.414,5.597,4.193,4.734,3.186z"/>
</g>
</svg>
