<?xml version="1.0" encoding="utf-8"?>
<!-- Generator: Adobe Illustrator 16.0.0, SVG Export Plug-In . SVG Version: 6.00 Build 0)  -->
<!DOCTYPE svg PUBLIC "-//W3C//DTD SVG 1.1//EN" "http://www.w3.org/Graphics/SVG/1.1/DTD/svg11.dtd">
<svg version="1.1" id="Layer_1" xmlns="http://www.w3.org/2000/svg" xmlns:xlink="http://www.w3.org/1999/xlink" x="0px" y="0px"
	 width="28px" height="34px" viewBox="0 0 28 34" enable-background="new 0 0 28 34" xml:space="preserve">
<g>
	<g>
		<path fill="#F1EFEF" d="M3.34,29.113H0v-6.302h3.199v0.668H0.738v2.097h2.277v0.663H0.738v2.206H3.34V29.113z"/>
		<path fill="#F1EFEF" d="M6.698,23.084c-0.141-0.079-0.3-0.119-0.479-0.119c-0.504,0-0.756,0.318-0.756,0.954v0.694h1.055v0.615
			H5.463v3.885H4.747v-3.885H3.979v-0.615h0.769v-0.729c0-0.472,0.136-0.845,0.409-1.118c0.271-0.273,0.611-0.411,1.02-0.411
			c0.219,0,0.394,0.026,0.522,0.079V23.084z"/>
		<path fill="#F1EFEF" d="M9.533,23.084c-0.141-0.079-0.301-0.119-0.479-0.119c-0.504,0-0.756,0.318-0.756,0.954v0.694h1.055v0.615
			H8.299v3.885H7.582v-3.885h-0.77v-0.615h0.77v-0.729c0-0.472,0.137-0.845,0.408-1.118c0.273-0.273,0.613-0.411,1.02-0.411
			c0.221,0,0.395,0.026,0.523,0.079V23.084z"/>
		<path fill="#F1EFEF" d="M13.762,27.043h-3.178c0.012,0.502,0.146,0.889,0.404,1.16c0.258,0.273,0.612,0.409,1.063,0.409
			c0.507,0,0.973-0.167,1.397-0.501v0.677c-0.396,0.287-0.918,0.431-1.568,0.431c-0.637,0-1.136-0.204-1.499-0.613
			c-0.363-0.408-0.545-0.983-0.545-1.725c0-0.7,0.198-1.271,0.596-1.712c0.396-0.44,0.89-0.661,1.479-0.661s1.044,0.19,1.366,0.571
			s0.484,0.909,0.484,1.587V27.043z M13.023,26.433c-0.004-0.416-0.104-0.739-0.302-0.972c-0.197-0.23-0.472-0.347-0.823-0.347
			c-0.34,0-0.629,0.122-0.866,0.364c-0.237,0.244-0.384,0.562-0.439,0.954H13.023z"/>
		<path fill="#F1EFEF" d="M17.936,28.906c-0.346,0.209-0.756,0.313-1.23,0.313c-0.641,0-1.159-0.209-1.553-0.626
			c-0.395-0.418-0.592-0.959-0.592-1.624c0-0.741,0.213-1.336,0.638-1.786s0.991-0.675,1.7-0.675c0.396,0,0.744,0.073,1.047,0.22
			v0.738c-0.334-0.234-0.691-0.352-1.072-0.352c-0.461,0-0.838,0.165-1.133,0.494c-0.293,0.33-0.441,0.763-0.441,1.299
			c0,0.527,0.139,0.943,0.416,1.248s0.648,0.457,1.113,0.457c0.393,0,0.762-0.13,1.107-0.392V28.906z"/>
		<path fill="#F1EFEF" d="M21.131,29.069c-0.17,0.094-0.394,0.141-0.672,0.141c-0.788,0-1.182-0.439-1.182-1.318v-2.663h-0.773
			v-0.615h0.773v-1.099l0.721-0.233v1.332h1.133v0.615h-1.133v2.535c0,0.303,0.051,0.518,0.153,0.646s0.272,0.193,0.51,0.193
			c0.182,0,0.339-0.05,0.47-0.149V29.069z"/>
	</g>
	<path fill-rule="evenodd" clip-rule="evenodd" fill="#F1EFEF" d="M13.752,0.171c0.319,0.081,0.592,0.194,0.816,0.338
		c0.223,0.138,0.396,0.308,0.516,0.509c0.119,0.199,0.179,0.423,0.179,0.668c0,0.146-0.029,0.269-0.089,0.367
		c-0.042,0.121-0.113,0.223-0.212,0.304c-0.633,0.396-1.237,0.396-1.811,0c-0.072-0.071-0.124-0.144-0.156-0.214
		c-0.064-0.145-0.166-0.285-0.305-0.424c-0.16-0.142-0.287-0.245-0.382-0.313c-0.109-0.076-0.336-0.146-0.679-0.207
		c-0.347-0.06-0.61-0.049-0.791,0.033c-0.181,0.059-0.392,0.26-0.635,0.602C9.907,2.312,9.652,2.957,9.439,3.775L8.99,5.635h4.854
		c0.201,0,0.372,0.107,0.513,0.326c0.162,0.264,0.325,0.791,0.486,1.58c0.559-0.787,1.075-1.352,1.548-1.695
		c0.417-0.314,0.743-0.515,0.979-0.602c0.398-0.193,0.789-0.193,1.173,0c0.062,0.037,0.121,0.083,0.182,0.138
		c0.123,0.132,0.186,0.273,0.186,0.427c0,0.21-0.084,0.371-0.252,0.486c-0.113,0.079-0.438,0.14-0.97,0.182
		c-0.426,0.024-0.798,0.167-1.117,0.426c-0.502,0.416-0.998,1.043-1.488,1.879l0.55,2.609c0.238,1.145,0.49,2.006,0.758,2.583
		c0.284,0.566,0.607,0.991,0.969,1.272c0.168,0.142,0.349,0.23,0.541,0.268c0.223-0.098,0.406-0.316,0.55-0.66
		c0.047-0.145,0.108-0.252,0.186-0.323c0.049-0.05,0.108-0.087,0.174-0.111c0.282-0.094,0.562-0.094,0.839,0
		c0.035,0.019,0.072,0.053,0.112,0.101l0.007,0.011c0.094,0.097,0.141,0.213,0.141,0.349c0,0.307-0.161,0.58-0.485,0.82
		c-0.322,0.242-0.747,0.363-1.273,0.363h-0.029c-0.169,0.022-0.32,0.034-0.454,0.034c-0.561,0-1.1-0.173-1.614-0.517
		c-0.528-0.373-0.973-0.949-1.333-1.729c-0.344-0.712-0.656-1.783-0.934-3.214L13.6,10.878c-0.749,1.032-1.327,1.688-1.732,1.968
		c-0.154,0.101-0.263,0.174-0.331,0.219c-0.292,0.16-0.564,0.241-0.819,0.241h-0.148c-0.121,0.017-0.234,0.026-0.339,0.026
		c-0.229,0-0.419-0.053-0.567-0.156C9.641,13.16,9.619,13.144,9.6,13.123c-0.183-0.115-0.275-0.277-0.275-0.486
		c0-0.158,0.061-0.301,0.183-0.43c0.055-0.055,0.105-0.098,0.155-0.127c0.011-0.006,0.019-0.013,0.026-0.018
		c0.281-0.164,0.575-0.164,0.88,0c0.026,0.027,0.058,0.045,0.093,0.056c0.059,0.049,0.119,0.11,0.178,0.182
		c0.059,0.084,0.132,0.146,0.215,0.186c0.129-0.089,0.29-0.24,0.482-0.453c0.021-0.042,0.039-0.073,0.057-0.093
		c0.36-0.358,0.636-0.682,0.823-0.969l1.091-1.58l-0.363-1.664c-0.16-0.687-0.282-1.104-0.364-1.25
		c-0.034-0.037-0.105-0.066-0.215-0.09H8.839L7.442,11.91c-0.306,1.188-0.729,2.178-1.269,2.969
		c-0.251,0.366-0.524,0.69-0.824,0.973c-0.728,0.693-1.497,1.122-2.309,1.287c-0.646,0.122-1.278,0.122-1.896,0
		c-0.08-0.034-0.154-0.078-0.223-0.133c-0.184-0.141-0.275-0.324-0.275-0.549c0-0.201,0.06-0.361,0.182-0.482
		c0.077-0.058,0.158-0.108,0.245-0.152c0.383-0.129,0.767-0.129,1.147,0c0.045,0.002,0.117,0.012,0.218,0.029
		c0.413,0.062,0.807,0.093,1.177,0.093c0.35-0.06,0.624-0.191,0.824-0.394c0.123-0.137,0.246-0.359,0.368-0.672
		c0.14-0.344,0.281-0.798,0.422-1.361L7.05,6.295H4.013v-0.66h3.186c0.339-1.445,0.732-2.538,1.18-3.278
		c0.463-0.704,1.05-1.272,1.759-1.703c0.445-0.245,0.86-0.417,1.243-0.516l0.146-0.026c0.679-0.148,1.346-0.148,2.001,0
		C13.585,0.119,13.661,0.139,13.752,0.171z"/>
</g>
</svg>
