<?xml version="1.0" encoding="utf-8"?>
<!-- Generator: Adobe Illustrator 16.0.0, SVG Export Plug-In . SVG Version: 6.00 Build 0)  -->
<!DOCTYPE svg PUBLIC "-//W3C//DTD SVG 1.1//EN" "http://www.w3.org/Graphics/SVG/1.1/DTD/svg11.dtd">
<svg version="1.1" id="Layer_1" xmlns="http://www.w3.org/2000/svg" xmlns:xlink="http://www.w3.org/1999/xlink" x="0px" y="0px"
	 width="19.042px" height="41px" viewBox="0 0 19.042 41" enable-background="new 0 0 19.042 41" xml:space="preserve">
<g>
	<g>
		<g>
			<path fill="#F1F0F0" d="M6.569,28.5H4.108v2.18h2.276v0.663H4.108v2.79H3.37v-6.301h3.199V28.5z"/>
			<path fill="#F1F0F0" d="M8.055,28.49c-0.129,0-0.239-0.043-0.33-0.131s-0.136-0.199-0.136-0.334s0.045-0.247,0.136-0.336
				c0.091-0.09,0.201-0.135,0.33-0.135c0.132,0,0.244,0.045,0.336,0.135c0.093,0.089,0.139,0.201,0.139,0.336
				c0,0.129-0.046,0.238-0.139,0.329C8.299,28.445,8.187,28.49,8.055,28.49z M8.406,34.133H7.686v-4.5h0.721V34.133z"/>
			<path fill="#F1F0F0" d="M10.604,34.133H9.883v-6.662h0.721V34.133z"/>
			<path fill="#F1F0F0" d="M12.802,34.133h-0.721v-6.662h0.721V34.133z"/>
		</g>
	</g>
	<g>
		<g>
			<rect x="0.312" y="0.312" fill-rule="evenodd" clip-rule="evenodd" width="18.418" height="18.418"/>
		</g>
		<g>
			<path fill="#FFFFFF" d="M18.418,0.624v17.794H0.624V0.624H18.418 M19.043,0h-0.625H0.624H0v0.624v17.794v0.624h0.624h17.794
				h0.625v-0.624V0.624V0L19.043,0z"/>
		</g>
	</g>
</g>
</svg>
