<?xml version="1.0" encoding="utf-8"?>
<!-- Generator: Adobe Illustrator 16.0.0, SVG Export Plug-In . SVG Version: 6.00 Build 0)  -->
<!DOCTYPE svg PUBLIC "-//W3C//DTD SVG 1.1//EN" "http://www.w3.org/Graphics/SVG/1.1/DTD/svg11.dtd">
<svg version="1.1" id="Layer_1" xmlns="http://www.w3.org/2000/svg" xmlns:xlink="http://www.w3.org/1999/xlink" x="0px" y="0px"
	 width="36px" height="38px" viewBox="0 0 36 38" enable-background="new 0 0 36 38" xml:space="preserve">
<g>
	<g>
		<path fill="#F1EFEF" d="M3.199,27.475H0.738v2.18h2.275v0.663H0.738v2.79H0v-6.301h3.199V27.475z"/>
		<path fill="#F1EFEF" d="M6.196,33.213c-0.665,0-1.196-0.209-1.593-0.631c-0.397-0.42-0.596-0.977-0.596-1.672
			c0-0.756,0.207-1.346,0.619-1.771c0.414-0.425,0.972-0.638,1.675-0.638c0.671,0,1.194,0.207,1.571,0.62
			c0.376,0.413,0.564,0.985,0.564,1.718c0,0.719-0.203,1.293-0.608,1.725C7.423,32.998,6.879,33.213,6.196,33.213z M6.249,29.109
			c-0.463,0-0.829,0.157-1.099,0.473c-0.27,0.314-0.404,0.748-0.404,1.303c0,0.533,0.137,0.953,0.408,1.261
			c0.273,0.308,0.638,0.462,1.095,0.462c0.466,0,0.824-0.151,1.074-0.453c0.251-0.302,0.376-0.73,0.376-1.287
			c0-0.563-0.125-0.996-0.376-1.301C7.073,29.262,6.715,29.109,6.249,29.109z"/>
		<path fill="#F1EFEF" d="M11.953,29.338c-0.125-0.098-0.307-0.146-0.545-0.146c-0.307,0-0.564,0.146-0.771,0.435
			c-0.205,0.291-0.309,0.686-0.309,1.188v2.293H9.607v-4.5h0.721v0.928h0.018c0.102-0.316,0.259-0.563,0.47-0.74
			s0.446-0.266,0.708-0.266c0.188,0,0.33,0.02,0.43,0.061V29.338z"/>
		<path fill="#F1EFEF" d="M18.783,28.607l-1.35,4.5h-0.746l-0.928-3.221c-0.035-0.123-0.059-0.262-0.07-0.418h-0.018
			c-0.009,0.105-0.039,0.242-0.092,0.409l-1.007,3.229h-0.721l-1.362-4.5h0.756l0.932,3.385c0.029,0.102,0.05,0.236,0.062,0.404
			h0.035c0.009-0.129,0.035-0.268,0.079-0.414l1.037-3.375h0.659L16.981,32c0.029,0.109,0.052,0.244,0.065,0.404h0.035
			c0.006-0.113,0.031-0.248,0.075-0.404l0.914-3.393H18.783z"/>
		<path fill="#F1EFEF" d="M22.857,33.107h-0.721v-0.703h-0.018c-0.314,0.539-0.775,0.809-1.385,0.809
			c-0.448,0-0.799-0.118-1.053-0.355s-0.38-0.553-0.38-0.945c0-0.84,0.495-1.33,1.485-1.467l1.35-0.189
			c0-0.765-0.31-1.146-0.928-1.146c-0.542,0-1.031,0.184-1.468,0.553v-0.738c0.442-0.281,0.952-0.422,1.529-0.422
			c1.058,0,1.587,0.561,1.587,1.68V33.107z M22.137,30.832l-1.086,0.148c-0.334,0.047-0.586,0.131-0.756,0.248
			c-0.17,0.119-0.255,0.33-0.255,0.631c0,0.221,0.078,0.4,0.235,0.539c0.156,0.139,0.365,0.209,0.626,0.209
			c0.357,0,0.652-0.125,0.886-0.377c0.232-0.25,0.35-0.566,0.35-0.951V30.832z"/>
		<path fill="#F1EFEF" d="M26.58,29.338c-0.127-0.098-0.309-0.146-0.545-0.146c-0.309,0-0.564,0.146-0.771,0.435
			c-0.207,0.291-0.311,0.686-0.311,1.188v2.293h-0.721v-4.5h0.721v0.928h0.018c0.104-0.316,0.26-0.563,0.471-0.74
			s0.447-0.266,0.707-0.266c0.188,0,0.332,0.02,0.432,0.061V29.338z"/>
		<path fill="#F1EFEF" d="M31.102,33.107h-0.721v-0.764h-0.018c-0.334,0.58-0.85,0.869-1.547,0.869
			c-0.564,0-1.018-0.201-1.355-0.604s-0.508-0.951-0.508-1.646c0-0.744,0.188-1.34,0.563-1.788s0.875-0.673,1.499-0.673
			c0.618,0,1.067,0.244,1.349,0.73h0.018v-2.787h0.721V33.107z M30.381,31.073V30.41c0-0.363-0.119-0.672-0.359-0.924
			s-0.545-0.377-0.914-0.377c-0.439,0-0.785,0.16-1.037,0.482s-0.379,0.768-0.379,1.336c0,0.52,0.121,0.929,0.363,1.229
			c0.242,0.301,0.566,0.451,0.973,0.451c0.402,0,0.729-0.146,0.979-0.436S30.381,31.516,30.381,31.073z"/>
	</g>
	<path fill="#F1EFEF" d="M21.143,14.107V6.121H5.863v15.135h7.887v4.162h11.41V14.107H21.143z M24.268,24.525h-9.625v-3.27h6.5V15
		h3.125V24.525z"/>
</g>
</svg>
