<?xml version="1.0" encoding="utf-8"?>
<!-- Generator: Adobe Illustrator 16.0.0, SVG Export Plug-In . SVG Version: 6.00 Build 0)  -->
<!DOCTYPE svg PUBLIC "-//W3C//DTD SVG 1.1//EN" "http://www.w3.org/Graphics/SVG/1.1/DTD/svg11.dtd">
<svg version="1.1" id="Layer_1" xmlns="http://www.w3.org/2000/svg" xmlns:xlink="http://www.w3.org/1999/xlink" x="0px" y="0px"
	 width="50px" height="41px" viewBox="0 0 50 41" enable-background="new 0 0 50 41" xml:space="preserve">
<g>
	<g>
		<path fill="#F1EFEF" d="M6.608,35.086v-6.303h1.793c0.545,0,0.978,0.134,1.296,0.4c0.32,0.267,0.479,0.613,0.479,1.041
			c0,0.357-0.097,0.668-0.29,0.932s-0.46,0.451-0.8,0.563v0.018c0.425,0.051,0.765,0.211,1.02,0.482
			c0.255,0.271,0.382,0.623,0.382,1.057c0,0.539-0.193,0.975-0.58,1.309s-0.874,0.502-1.463,0.502H6.608z M7.347,29.451v2.035h0.756
			c0.404,0,0.722-0.098,0.954-0.293C9.287,31,9.403,30.725,9.403,30.37c0-0.612-0.403-0.919-1.208-0.919H7.347z M7.347,32.15v2.268
			h1.002c0.434,0,0.77-0.104,1.009-0.309c0.238-0.205,0.357-0.486,0.357-0.844c0-0.744-0.506-1.115-1.52-1.115H7.347z"/>
		<path fill="#F1EFEF" d="M14.91,35.086h-0.721v-0.703h-0.018c-0.313,0.539-0.775,0.809-1.385,0.809
			c-0.447,0-0.799-0.119-1.053-0.356c-0.253-0.237-0.379-0.552-0.379-0.944c0-0.842,0.494-1.33,1.484-1.469l1.35-0.188
			c0-0.765-0.309-1.147-0.928-1.147c-0.541,0-1.031,0.186-1.467,0.555v-0.738c0.441-0.281,0.951-0.422,1.529-0.422
			c1.057,0,1.586,0.559,1.586,1.678V35.086z M14.189,32.809l-1.086,0.15c-0.334,0.047-0.586,0.129-0.756,0.248
			s-0.254,0.328-0.254,0.631c0,0.219,0.078,0.398,0.234,0.537c0.156,0.141,0.365,0.209,0.627,0.209c0.357,0,0.652-0.125,0.885-0.375
			s0.35-0.568,0.35-0.951V32.809z"/>
		<path fill="#F1EFEF" d="M19.354,34.879c-0.346,0.208-0.756,0.313-1.23,0.313c-0.642,0-1.16-0.209-1.554-0.627
			s-0.591-0.959-0.591-1.623c0-0.742,0.213-1.337,0.637-1.787c0.426-0.449,0.992-0.674,1.701-0.674c0.396,0,0.744,0.072,1.046,0.219
			v0.738c-0.334-0.234-0.691-0.352-1.072-0.352c-0.46,0-0.837,0.166-1.132,0.494c-0.294,0.33-0.441,0.764-0.441,1.299
			c0,0.527,0.139,0.943,0.415,1.248c0.277,0.305,0.648,0.457,1.114,0.457c0.393,0,0.762-0.13,1.107-0.391V34.879z"/>
		<path fill="#F1EFEF" d="M24.197,35.086h-1.012l-1.986-2.162h-0.018v2.162h-0.721v-6.662h0.721v4.223h0.018l1.891-2.061h0.944
			l-2.087,2.17L24.197,35.086z"/>
		<path fill="#F1EFEF" d="M30.621,30.586l-1.349,4.5h-0.747l-0.928-3.222c-0.035-0.123-0.059-0.263-0.07-0.417H27.51
			c-0.008,0.105-0.039,0.241-0.092,0.408l-1.006,3.23h-0.721l-1.363-4.5h0.756l0.932,3.383c0.029,0.104,0.051,0.238,0.063,0.404
			h0.035c0.008-0.129,0.035-0.266,0.078-0.412l1.037-3.375h0.66l0.932,3.393c0.029,0.107,0.051,0.242,0.065,0.404h0.035
			c0.006-0.115,0.03-0.25,0.075-0.404l0.914-3.393H30.621z"/>
		<path fill="#F1EFEF" d="M34.695,35.086h-0.721v-0.703h-0.018c-0.313,0.539-0.774,0.809-1.384,0.809
			c-0.448,0-0.8-0.119-1.053-0.356s-0.38-0.552-0.38-0.944c0-0.842,0.495-1.33,1.485-1.469l1.349-0.188
			c0-0.765-0.309-1.147-0.927-1.147c-0.542,0-1.031,0.186-1.468,0.555v-0.738c0.442-0.281,0.952-0.422,1.529-0.422
			c1.058,0,1.586,0.559,1.586,1.678V35.086z M33.975,32.809l-1.085,0.15c-0.334,0.047-0.586,0.129-0.756,0.248
			s-0.255,0.328-0.255,0.631c0,0.219,0.078,0.398,0.235,0.537c0.156,0.141,0.365,0.209,0.626,0.209c0.357,0,0.652-0.125,0.886-0.375
			c0.232-0.25,0.349-0.568,0.349-0.951V32.809z"/>
		<path fill="#F1EFEF" d="M38.418,31.314c-0.125-0.096-0.307-0.145-0.545-0.145c-0.307,0-0.564,0.145-0.771,0.436
			c-0.205,0.289-0.309,0.686-0.309,1.186v2.295h-0.721v-4.5h0.721v0.927h0.018c0.102-0.316,0.259-0.563,0.47-0.741
			c0.211-0.176,0.446-0.266,0.708-0.266c0.188,0,0.33,0.021,0.43,0.063V31.314z"/>
		<path fill="#F1EFEF" d="M42.941,35.086h-0.721V34.32h-0.018c-0.334,0.58-0.85,0.871-1.547,0.871c-0.566,0-1.018-0.201-1.355-0.605
			c-0.34-0.402-0.508-0.951-0.508-1.645c0-0.744,0.188-1.341,0.563-1.789s0.874-0.672,1.498-0.672c0.618,0,1.068,0.242,1.35,0.729
			h0.018v-2.785h0.721V35.086z M42.221,33.051v-0.664c0-0.363-0.121-0.67-0.361-0.922s-0.545-0.379-0.914-0.379
			c-0.439,0-0.785,0.162-1.037,0.484s-0.377,0.768-0.377,1.336c0,0.518,0.121,0.928,0.361,1.229c0.242,0.3,0.566,0.449,0.975,0.449
			c0.4,0,0.727-0.145,0.977-0.435C42.096,33.859,42.221,33.493,42.221,33.051z"/>
	</g>
	<path fill="#F1EFEF" d="M30.279,15.963V8.098H15.234V23H23v4.1h11.234V15.963H30.279z M33.355,26.221h-9.477v-9.379h9.477V26.221z"
		/>
</g>
</svg>
