<?xml version="1.0" encoding="utf-8"?>
<!-- Generator: Adobe Illustrator 16.0.0, SVG Export Plug-In . SVG Version: 6.00 Build 0)  -->
<!DOCTYPE svg PUBLIC "-//W3C//DTD SVG 1.1//EN" "http://www.w3.org/Graphics/SVG/1.1/DTD/svg11.dtd">
<svg version="1.1" id="Layer_1" xmlns="http://www.w3.org/2000/svg" xmlns:xlink="http://www.w3.org/1999/xlink" x="0px" y="0px"
	 width="39px" height="35.893px" viewBox="0 0 39 35.893" enable-background="new 0 0 39 35.893" xml:space="preserve">
<g>
	<g>
		<path fill="#F1EFEF" d="M6.004,26.988v-6.303h1.793c0.545,0,0.977,0.134,1.297,0.4c0.318,0.267,0.479,0.613,0.479,1.041
			c0,0.357-0.097,0.668-0.29,0.932s-0.46,0.451-0.8,0.563v0.018c0.425,0.051,0.765,0.211,1.02,0.482
			c0.255,0.271,0.383,0.623,0.383,1.057c0,0.539-0.193,0.975-0.58,1.309s-0.875,0.502-1.464,0.502H6.004z M6.742,21.354v2.035h0.756
			c0.404,0,0.723-0.098,0.953-0.293c0.232-0.193,0.348-0.469,0.348-0.823c0-0.612-0.402-0.919-1.209-0.919H6.742z M6.742,24.053
			v2.268h1.002c0.434,0,0.77-0.104,1.009-0.309c0.238-0.205,0.358-0.486,0.358-0.844c0-0.744-0.508-1.115-1.521-1.115H6.742z"/>
		<path fill="#F1EFEF" d="M13.432,23.217c-0.127-0.096-0.309-0.145-0.545-0.145c-0.309,0-0.564,0.145-0.771,0.436
			c-0.207,0.289-0.311,0.686-0.311,1.186v2.295h-0.721v-4.5h0.721v0.927h0.018c0.104-0.316,0.26-0.563,0.471-0.741
			c0.211-0.176,0.447-0.266,0.707-0.266c0.188,0,0.332,0.021,0.432,0.063V23.217z"/>
		<path fill="#F1EFEF" d="M14.601,21.346c-0.129,0-0.239-0.045-0.329-0.133c-0.092-0.088-0.137-0.199-0.137-0.334
			s0.045-0.246,0.137-0.336c0.09-0.089,0.2-0.134,0.329-0.134c0.132,0,0.244,0.045,0.336,0.134c0.093,0.09,0.139,0.201,0.139,0.336
			c0,0.129-0.046,0.239-0.139,0.33C14.845,21.3,14.732,21.346,14.601,21.346z M14.952,26.988h-0.721v-4.5h0.721V26.988z"/>
		<path fill="#F1EFEF" d="M20.164,26.988h-0.721v-2.566c0-0.955-0.348-1.434-1.045-1.434c-0.361,0-0.659,0.137-0.895,0.406
			c-0.236,0.271-0.354,0.613-0.354,1.027v2.566H16.43v-4.5h0.721v0.746h0.018c0.34-0.568,0.832-0.852,1.477-0.852
			c0.492,0,0.868,0.158,1.129,0.477s0.391,0.777,0.391,1.377V26.988z"/>
		<path fill="#F1EFEF" d="M25.381,26.627c0,1.652-0.791,2.479-2.373,2.479c-0.557,0-1.043-0.105-1.459-0.316v-0.721
			c0.507,0.281,0.99,0.422,1.45,0.422c1.107,0,1.661-0.588,1.661-1.766v-0.492h-0.018c-0.343,0.574-0.858,0.861-1.547,0.861
			c-0.56,0-1.01-0.201-1.352-0.6c-0.342-0.4-0.512-0.938-0.512-1.611c0-0.765,0.184-1.373,0.552-1.824
			c0.367-0.451,0.87-0.676,1.509-0.676c0.607,0,1.057,0.242,1.35,0.729h0.018v-0.623h0.721V26.627z M24.66,24.953v-0.664
			c0-0.357-0.121-0.663-0.362-0.918c-0.242-0.255-0.543-0.383-0.903-0.383c-0.445,0-0.794,0.162-1.046,0.486
			s-0.378,0.777-0.378,1.359c0,0.502,0.121,0.902,0.362,1.203c0.242,0.3,0.562,0.449,0.96,0.449c0.404,0,0.733-0.143,0.987-0.43
			C24.533,25.77,24.66,25.401,24.66,24.953z"/>
		<path fill="#F1EFEF" d="M2.628,35.744c-0.17,0.094-0.394,0.141-0.673,0.141c-0.787,0-1.182-0.439-1.182-1.318v-2.664H0v-0.615
			h0.773v-1.098l0.721-0.233v1.331h1.134v0.615H1.494v2.536c0,0.302,0.051,0.517,0.154,0.646c0.102,0.129,0.271,0.193,0.51,0.193
			c0.182,0,0.338-0.049,0.47-0.148V35.744z"/>
		<path fill="#F1EFEF" d="M5.419,35.893c-0.665,0-1.196-0.209-1.593-0.631c-0.397-0.42-0.596-0.977-0.596-1.672
			c0-0.756,0.207-1.346,0.619-1.771c0.414-0.425,0.972-0.638,1.675-0.638c0.671,0,1.194,0.207,1.571,0.62
			c0.376,0.413,0.564,0.985,0.564,1.718c0,0.719-0.203,1.293-0.608,1.725C6.646,35.678,6.102,35.893,5.419,35.893z M5.472,31.789
			c-0.463,0-0.829,0.157-1.099,0.473c-0.27,0.314-0.404,0.748-0.404,1.303c0,0.533,0.137,0.953,0.408,1.261
			c0.273,0.308,0.638,0.462,1.095,0.462c0.466,0,0.824-0.151,1.074-0.453c0.251-0.302,0.376-0.73,0.376-1.287
			c0-0.563-0.125-0.996-0.376-1.301C6.296,31.941,5.938,31.789,5.472,31.789z"/>
		<path fill="#F1EFEF" d="M14.609,30.154h-2.461v2.18h2.275v0.663h-2.275v2.79H11.41v-6.301h3.199V30.154z"/>
		<path fill="#F1EFEF" d="M18.072,32.018c-0.127-0.098-0.309-0.146-0.545-0.146c-0.309,0-0.564,0.146-0.771,0.435
			c-0.207,0.291-0.311,0.686-0.311,1.188v2.293h-0.721v-4.5h0.721v0.928h0.018c0.104-0.316,0.26-0.563,0.471-0.74
			s0.447-0.266,0.707-0.266c0.188,0,0.332,0.02,0.432,0.061V32.018z"/>
		<path fill="#F1EFEF" d="M20.635,35.893c-0.666,0-1.197-0.209-1.594-0.631c-0.396-0.42-0.596-0.977-0.596-1.672
			c0-0.756,0.207-1.346,0.62-1.771s0.972-0.638,1.675-0.638c0.67,0,1.193,0.207,1.57,0.62s0.564,0.985,0.564,1.718
			c0,0.719-0.203,1.293-0.607,1.725C21.861,35.678,21.316,35.893,20.635,35.893z M20.688,31.789c-0.463,0-0.83,0.157-1.1,0.473
			c-0.27,0.314-0.404,0.748-0.404,1.303c0,0.533,0.137,0.953,0.409,1.261s0.638,0.462,1.095,0.462c0.465,0,0.824-0.151,1.074-0.453
			s0.375-0.73,0.375-1.287c0-0.563-0.125-0.996-0.375-1.301S21.152,31.789,20.688,31.789z"/>
		<path fill="#F1EFEF" d="M27.78,35.787H27.06v-2.566c0-0.955-0.349-1.432-1.046-1.432c-0.36,0-0.658,0.135-0.895,0.406
			s-0.354,0.613-0.354,1.025v2.566h-0.721v-4.5h0.721v0.748h0.018c0.34-0.568,0.832-0.854,1.477-0.854
			c0.492,0,0.869,0.16,1.129,0.477c0.262,0.318,0.392,0.777,0.392,1.379V35.787z"/>
		<path fill="#F1EFEF" d="M31.244,35.744c-0.17,0.094-0.395,0.141-0.673,0.141c-0.788,0-1.183-0.439-1.183-1.318v-2.664h-0.773
			v-0.615h0.773v-1.098l0.721-0.233v1.331h1.135v0.615h-1.135v2.536c0,0.302,0.052,0.517,0.154,0.646s0.272,0.193,0.51,0.193
			c0.182,0,0.338-0.049,0.471-0.148V35.744z"/>
	</g>
	<path fill="#F1EFEF" d="M22.215,10.16V3.346h-6.816V0H5.662v9.652h3.514v6.609h6.73v3.551h9.738V10.16H22.215z M6.424,8.891V0.764
		h8.213v2.582H9.176v5.545H6.424z M24.883,19.051H16.67v-2.789h5.545v-5.338h2.668V19.051z"/>
</g>
</svg>
