<?xml version="1.0" encoding="utf-8"?>
<!-- Generator: Adobe Illustrator 16.0.0, SVG Export Plug-In . SVG Version: 6.00 Build 0)  -->
<!DOCTYPE svg PUBLIC "-//W3C//DTD SVG 1.1//EN" "http://www.w3.org/Graphics/SVG/1.1/DTD/svg11.dtd">
<svg version="1.1" id="Layer_1" xmlns="http://www.w3.org/2000/svg" xmlns:xlink="http://www.w3.org/1999/xlink" x="0px" y="0px"
	 width="28.997px" height="40px" viewBox="0 0 28.997 40" enable-background="new 0 0 28.997 40" xml:space="preserve">
<g>
	<g>
		<path fill="#F1EFEF" d="M4.974,26.732v-0.871c0.1,0.088,0.219,0.168,0.357,0.238s0.286,0.129,0.439,0.178
			c0.154,0.049,0.309,0.086,0.464,0.111c0.155,0.027,0.299,0.04,0.431,0.04c0.454,0,0.793-0.084,1.018-0.253
			c0.224-0.168,0.336-0.41,0.336-0.727c0-0.17-0.037-0.318-0.112-0.444c-0.074-0.126-0.178-0.241-0.31-0.345
			s-0.288-0.203-0.468-0.299c-0.181-0.096-0.374-0.195-0.583-0.301c-0.219-0.111-0.424-0.225-0.615-0.339
			c-0.189-0.114-0.355-0.24-0.496-0.378s-0.252-0.293-0.332-0.469c-0.08-0.174-0.121-0.378-0.121-0.612
			c0-0.287,0.063-0.536,0.189-0.749s0.291-0.388,0.496-0.525s0.439-0.24,0.701-0.308s0.529-0.101,0.803-0.101
			c0.621,0,1.073,0.074,1.357,0.224v0.831c-0.372-0.258-0.85-0.387-1.433-0.387c-0.161,0-0.322,0.017-0.483,0.051
			c-0.161,0.033-0.305,0.088-0.431,0.164s-0.229,0.174-0.308,0.295c-0.079,0.119-0.119,0.266-0.119,0.439
			c0,0.16,0.03,0.3,0.091,0.417c0.06,0.117,0.148,0.224,0.266,0.321c0.117,0.096,0.26,0.189,0.429,0.281
			c0.168,0.09,0.362,0.189,0.582,0.299c0.226,0.111,0.439,0.229,0.642,0.352s0.38,0.259,0.532,0.408s0.272,0.314,0.362,0.496
			c0.089,0.182,0.134,0.391,0.134,0.625c0,0.311-0.061,0.572-0.183,0.789c-0.122,0.215-0.285,0.39-0.492,0.524
			c-0.206,0.135-0.444,0.232-0.714,0.292c-0.27,0.061-0.554,0.09-0.853,0.09c-0.1,0-0.223-0.008-0.369-0.023
			c-0.146-0.017-0.296-0.039-0.448-0.07s-0.297-0.068-0.433-0.115C5.164,26.838,5.056,26.787,4.974,26.732z"/>
		<path fill="#F1EFEF" d="M13.587,24.917h-3.178c0.012,0.501,0.146,0.888,0.404,1.16s0.613,0.409,1.064,0.409
			c0.506,0,0.973-0.168,1.396-0.502v0.678c-0.395,0.287-0.918,0.43-1.568,0.43c-0.636,0-1.135-0.203-1.498-0.613
			c-0.363-0.408-0.545-0.982-0.545-1.725c0-0.699,0.197-1.27,0.596-1.711c0.396-0.441,0.889-0.662,1.479-0.662
			c0.588,0,1.044,0.191,1.366,0.572s0.483,0.909,0.483,1.586V24.917z M12.849,24.307c-0.003-0.416-0.104-0.74-0.301-0.972
			s-0.473-0.347-0.824-0.347c-0.34,0-0.629,0.121-0.865,0.364c-0.238,0.243-0.385,0.562-0.439,0.954H12.849z"/>
		<path fill="#F1EFEF" d="M18.431,26.986H17.71V24.42c0-0.955-0.35-1.432-1.047-1.432c-0.359,0-0.658,0.135-0.895,0.406
			c-0.235,0.271-0.354,0.613-0.354,1.025v2.566h-0.721v-4.5h0.721v0.748h0.018c0.34-0.568,0.832-0.854,1.477-0.854
			c0.492,0,0.869,0.16,1.13,0.477c0.261,0.318,0.392,0.777,0.392,1.379V26.986z"/>
		<path fill="#F1EFEF" d="M23.647,26.986h-0.721v-0.764h-0.018c-0.334,0.58-0.85,0.869-1.547,0.869
			c-0.566,0-1.018-0.201-1.355-0.604c-0.34-0.402-0.508-0.951-0.508-1.646c0-0.744,0.188-1.34,0.563-1.788s0.874-0.673,1.498-0.673
			c0.618,0,1.068,0.244,1.35,0.73h0.018v-2.787h0.721V26.986z M22.927,24.952v-0.663c0-0.363-0.121-0.672-0.361-0.924
			s-0.545-0.377-0.914-0.377c-0.439,0-0.785,0.16-1.037,0.482s-0.377,0.768-0.377,1.336c0,0.52,0.121,0.929,0.361,1.229
			c0.242,0.301,0.566,0.451,0.975,0.451c0.4,0,0.727-0.146,0.977-0.436C22.802,25.761,22.927,25.395,22.927,24.952z"/>
		<path fill="#F1EFEF" d="M2.628,35.742c-0.17,0.094-0.395,0.141-0.672,0.141c-0.789,0-1.183-0.439-1.183-1.318v-2.662H0v-0.615
			h0.773v-1.1l0.721-0.232v1.332h1.134v0.615H1.494v2.535c0,0.302,0.052,0.518,0.153,0.646c0.104,0.129,0.273,0.193,0.51,0.193
			c0.182,0,0.339-0.051,0.471-0.15V35.742z"/>
		<path fill="#F1EFEF" d="M5.419,35.893c-0.665,0-1.196-0.211-1.593-0.631c-0.397-0.42-0.596-0.979-0.596-1.672
			c0-0.756,0.206-1.347,0.62-1.771c0.412-0.425,0.971-0.637,1.674-0.637c0.671,0,1.194,0.206,1.571,0.619
			c0.376,0.413,0.564,0.986,0.564,1.719c0,0.717-0.203,1.293-0.608,1.725C6.646,35.676,6.102,35.893,5.419,35.893z M5.472,31.787
			c-0.463,0-0.829,0.158-1.099,0.473c-0.27,0.315-0.404,0.75-0.404,1.303c0,0.533,0.136,0.954,0.409,1.262
			c0.271,0.308,0.637,0.461,1.094,0.461c0.466,0,0.824-0.15,1.074-0.452c0.251-0.302,0.376-0.731,0.376-1.288
			c0-0.563-0.125-0.996-0.376-1.301C6.296,31.939,5.938,31.787,5.472,31.787z"/>
		<path fill="#F1EFEF" d="M11.409,35.787v-6.303h1.793c0.545,0,0.978,0.134,1.297,0.4s0.479,0.613,0.479,1.041
			c0,0.357-0.096,0.668-0.289,0.932s-0.461,0.451-0.801,0.563v0.018c0.426,0.051,0.766,0.211,1.02,0.482
			c0.256,0.271,0.383,0.623,0.383,1.057c0,0.539-0.193,0.975-0.58,1.309s-0.875,0.502-1.463,0.502H11.409z M12.147,30.152v2.035
			h0.756c0.404,0,0.723-0.098,0.954-0.293c0.231-0.193,0.347-0.469,0.347-0.823c0-0.612-0.402-0.919-1.208-0.919H12.147z
			 M12.147,32.852v2.268h1.002c0.434,0,0.77-0.104,1.01-0.309c0.238-0.205,0.357-0.486,0.357-0.844c0-0.744-0.507-1.115-1.521-1.115
			H12.147z"/>
		<path fill="#F1EFEF" d="M19.711,35.787H18.99v-0.703h-0.018c-0.313,0.539-0.774,0.809-1.384,0.809c-0.449,0-0.8-0.119-1.053-0.356
			c-0.254-0.237-0.381-0.552-0.381-0.944c0-0.842,0.496-1.33,1.486-1.469l1.349-0.188c0-0.765-0.31-1.147-0.927-1.147
			c-0.543,0-1.031,0.186-1.469,0.555v-0.738c0.443-0.281,0.953-0.422,1.529-0.422c1.059,0,1.587,0.559,1.587,1.678V35.787z
			 M18.99,33.51l-1.085,0.15c-0.334,0.047-0.586,0.129-0.756,0.248s-0.256,0.328-0.256,0.631c0,0.219,0.078,0.398,0.236,0.537
			c0.156,0.141,0.365,0.209,0.625,0.209c0.357,0,0.652-0.125,0.887-0.375c0.232-0.25,0.349-0.568,0.349-0.951V33.51z"/>
		<path fill="#F1EFEF" d="M24.154,35.58c-0.346,0.208-0.756,0.313-1.23,0.313c-0.642,0-1.159-0.209-1.554-0.627
			s-0.591-0.959-0.591-1.623c0-0.742,0.212-1.337,0.638-1.787c0.424-0.449,0.991-0.674,1.7-0.674c0.396,0,0.744,0.072,1.046,0.219
			v0.738c-0.334-0.234-0.691-0.352-1.072-0.352c-0.46,0-0.837,0.166-1.132,0.494c-0.294,0.33-0.441,0.764-0.441,1.299
			c0,0.527,0.139,0.943,0.415,1.248c0.277,0.305,0.648,0.457,1.114,0.457c0.393,0,0.762-0.13,1.107-0.391V35.58z"/>
		<path fill="#F1EFEF" d="M28.997,35.787h-1.01l-1.986-2.162h-0.018v2.162h-0.721v-6.662h0.721v4.223h0.018l1.889-2.061h0.945
			l-2.088,2.17L28.997,35.787z"/>
	</g>
	<path fill="#F1EFEF" d="M21.073,10.303V3.391h-6.912V0H4.286v9.787h3.564v6.701h6.826v3.602h9.873v-9.787H21.073z M5.06,9.014
		V0.771h8.328v8.242H5.06z M23.776,19.318h-8.328v-8.242h8.328V19.318z"/>
</g>
</svg>
