<?xml version="1.0" encoding="utf-8"?>
<!-- Generator: Adobe Illustrator 16.0.0, SVG Export Plug-In . SVG Version: 6.00 Build 0)  -->
<!DOCTYPE svg PUBLIC "-//W3C//DTD SVG 1.1//EN" "http://www.w3.org/Graphics/SVG/1.1/DTD/svg11.dtd">
<svg version="1.1"
	 id="svg11300" xmlns:dc="http://purl.org/dc/elements/1.1/" xmlns:cc="http://web.resource.org/cc/" xmlns:rdf="http://www.w3.org/1999/02/22-rdf-syntax-ns#" xmlns:svg="http://www.w3.org/2000/svg" xmlns:sodipodi="http://sodipodi.sourceforge.net/DTD/sodipodi-0.dtd" xmlns:inkscape="http://www.inkscape.org/namespaces/inkscape" inkscape:export-ydpi="90.000000" inkscape:export-xdpi="90.000000" inkscape:export-filename="/home/jimmac/Desktop/wi-fi.png" sodipodi:version="0.32" inkscape:version="0.45" sodipodi:docbase="/home/dobey/Projects/gnome-icon-theme/scalable/emblems" sodipodi:docname="emblem-readonly.svg" inkscape:output_extension="org.inkscape.output.svg.inkscape"
	 xmlns="http://www.w3.org/2000/svg" xmlns:xlink="http://www.w3.org/1999/xlink" x="0px" y="0px" width="23.617px" height="35.6px"
	 viewBox="0 -11.275 23.617 35.6" enable-background="new 0 -11.275 23.617 35.6" xml:space="preserve">
<sodipodi:namedview  fill="#888a85" stroke="#ef2929" width="32px" height="32px" id="base" pagecolor="#ffffff" bordercolor="#666666" borderopacity="0.25490196" inkscape:zoom="1" inkscape:cx="56.998168" inkscape:cy="-1.5411881" showgrid="false" showborder="false" inkscape:pageopacity="0.0" inkscape:pageshadow="2" inkscape:current-layer="layer1" inkscape:grid-bbox="true" inkscape:document-units="px" inkscape:showpageshadow="false" inkscape:window-width="908" inkscape:window-height="924" inkscape:window-x="573" inkscape:window-y="126">
	</sodipodi:namedview>
<g id="layer1" inkscape:label="Layer 1" inkscape:groupmode="layer">
	<g id="g7028" transform="matrix(1.0687465,0,0,1,-1.6499158,0)" opacity="0.2">
		
			<radialGradient id="rect6982_1_" cx="293.1654" cy="628.2915" r="1.7662" gradientTransform="matrix(2.2844 0 0 0.907 -649.8352 -561.4485)" gradientUnits="userSpaceOnUse">
			<stop  offset="0" style="stop-color:#000000"/>
			<stop  offset="1" style="stop-color:#000000;stop-opacity:0"/>
		</radialGradient>
		<rect id="rect6982" x="19.881" y="6.811" fill="url(#rect6982_1_)" width="3.528" height="3.201"/>
		
			<radialGradient id="rect7000_1_" cx="-316.5038" cy="-573.4077" r="1.7625" gradientTransform="matrix(-2.2844 0 0 -0.907 -717.266 -511.6682)" gradientUnits="userSpaceOnUse">
			<stop  offset="0" style="stop-color:#000000"/>
			<stop  offset="1" style="stop-color:#000000;stop-opacity:0"/>
		</radialGradient>
		<rect id="rect7000" x="2.242" y="6.811" fill="url(#rect7000_1_)" width="3.528" height="3.201"/>
		
			<linearGradient id="rect7008_1_" gradientUnits="userSpaceOnUse" x1="166.5494" y1="574.0122" x2="166.5494" y2="570.811" gradientTransform="matrix(4.5689 0 0 1 -748.1232 -564)">
			<stop  offset="0" style="stop-color:#000000;stop-opacity:0"/>
			<stop  offset="0.5" style="stop-color:#000000"/>
			<stop  offset="1" style="stop-color:#000000;stop-opacity:0"/>
		</linearGradient>
		<rect id="rect7008" x="5.769" y="6.811" fill="url(#rect7008_1_)" width="14.112" height="3.201"/>
	</g>
	
		<linearGradient id="rect6904_1_" gradientUnits="userSpaceOnUse" x1="744.9985" y1="547.6304" x2="752.9615" y2="578.264" gradientTransform="matrix(1 0 0 1 -737 -560)">
		<stop  offset="0" style="stop-color:#FFFFFF"/>
		<stop  offset="0.8108" style="stop-color:#D3D7CF"/>
		<stop  offset="1" style="stop-color:#959E8B"/>
	</linearGradient>
	<path id="rect6904" fill="url(#rect6904_1_)" stroke="#888A85" stroke-linecap="round" d="M9.688-10.275
		c-2.435,0-4.392,1.958-4.392,4.393v3.841H4.746c-0.677,0-1.214,0.537-1.214,1.212v8.158c0,0.676,0.537,1.215,1.214,1.215h14.627
		c0.675,0,1.212-0.537,1.212-1.215V-0.83c0-0.676-0.537-1.212-1.212-1.212h-0.552v-3.841c0-2.434-1.958-4.393-4.391-4.393H9.688z
		 M9.688-7.333h4.742c0.859,0,1.45,0.591,1.45,1.451v3.839H8.238v-3.839C8.235-6.743,8.826-7.333,9.688-7.333z"/>
	
		<linearGradient id="path6970_1_" gradientUnits="userSpaceOnUse" x1="747.9702" y1="557.8589" x2="752.5708" y2="580.6568" gradientTransform="matrix(1 0 0 1 -737 -560)">
		<stop  offset="0" style="stop-color:#FFFFFF"/>
		<stop  offset="1" style="stop-color:#FFFFFF;stop-opacity:0"/>
	</linearGradient>
	
		<path id="path6970" inkscape:radius="-0.98601711" sodipodi:type="inkscape:offset" inkscape:original="M 19.96875 3.5 C 15.828453 3.5 12.5 6.8284531 12.5 10.96875 L 12.5 17.5 L 11.5625 17.5 C 10.413064 17.5 9.5 18.413063 9.5 19.5625 L 9.5 33.4375 C 9.5 34.586936 10.413064 35.5 11.5625 35.5 L 36.4375 35.5 C 37.586936 35.5 38.500002 34.586937 38.5 33.4375 L 38.5 19.5625 C 38.5 18.413064 37.586935 17.5 36.4375 17.5 L 35.5 17.5 L 35.5 10.96875 C 35.5 6.8284531 32.171548 3.5 28.03125 3.5 L 19.96875 3.5 z M 19.96875 8.5 L 28.03125 8.5 C 29.495074 8.5 30.5 9.5049271 30.5 10.96875 L 30.5 17.5 L 17.5 17.5 L 17.5 10.96875 C 17.5 9.5049279 18.504928 8.5 19.96875 8.5 z " fill="none" stroke="url(#path6970_1_)" stroke-linecap="round" d="
		M9.688-9.687c-2.124,0-3.804,1.681-3.804,3.805v3.841c0.003,0.157-0.06,0.308-0.17,0.417c-0.11,0.111-0.261,0.173-0.418,0.172
		H4.746c-0.37,0-0.626,0.255-0.626,0.623v8.158c0,0.371,0.256,0.626,0.626,0.626h14.627c0.368,0,0.624-0.257,0.624-0.626V-0.83
		c0-0.368-0.256-0.623-0.624-0.623h-0.552c-0.158,0.001-0.309-0.061-0.418-0.172c-0.113-0.109-0.174-0.26-0.172-0.417v-3.841
		c0-2.124-1.68-3.805-3.804-3.805H9.688z M9.688-7.921h4.742c0.563,0,1.08,0.218,1.45,0.588c0.37,0.369,0.589,0.887,0.589,1.451
		v3.839c0.002,0.157-0.061,0.307-0.172,0.417c-0.109,0.112-0.262,0.174-0.417,0.172H8.235c-0.156,0.002-0.307-0.06-0.418-0.172
		c-0.11-0.11-0.172-0.26-0.17-0.417v-3.839c0-0.564,0.218-1.082,0.588-1.451C8.604-7.704,9.124-7.921,9.688-7.921z"/>
</g>
<g>
	<text transform="matrix(1 0 0 1 2.9609 23.3247)" fill="#F0F0F0" font-family="'SegoeUI'" font-size="9">Lock</text>
</g>
</svg>
