<?xml version="1.0" encoding="utf-8"?>
<!-- Generator: Adobe Illustrator 16.0.0, SVG Export Plug-In . SVG Version: 6.00 Build 0)  -->
<!DOCTYPE svg PUBLIC "-//W3C//DTD SVG 1.0//EN" "http://www.w3.org/TR/2001/REC-SVG-20010904/DTD/svg10.dtd" [
	<!ENTITY ns_extend "http://ns.adobe.com/Extensibility/1.0/">
	<!ENTITY ns_ai "http://ns.adobe.com/AdobeIllustrator/10.0/">
	<!ENTITY ns_graphs "http://ns.adobe.com/Graphs/1.0/">
	<!ENTITY ns_vars "http://ns.adobe.com/Variables/1.0/">
	<!ENTITY ns_imrep "http://ns.adobe.com/ImageReplacement/1.0/">
	<!ENTITY ns_sfw "http://ns.adobe.com/SaveForWeb/1.0/">
	<!ENTITY ns_custom "http://ns.adobe.com/GenericCustomNamespace/1.0/">
	<!ENTITY ns_adobe_xpath "http://ns.adobe.com/XPath/1.0/">
]>
<svg version="1.0" id="Layer_1" xmlns:x="&ns_extend;" xmlns:i="&ns_ai;" xmlns:graph="&ns_graphs;"
	 xmlns="http://www.w3.org/2000/svg" xmlns:xlink="http://www.w3.org/1999/xlink" x="0px" y="0px" width="50px" height="41.57px"
	 viewBox="0 0 50 41.57" enable-background="new 0 0 50 41.57" xml:space="preserve">

<g>
	<g>
		<g>
			<path fill-rule="evenodd" clip-rule="evenodd" fill="#FFFFFF" d="M25.227,1.57c-11.028,0-20,8.973-20,20c0,11.029,8.972,20,20,20
				c11.03,0,20-8.971,20-20C45.227,10.543,36.257,1.57,25.227,1.57z M25.227,39.518c-9.896,0-17.949-8.051-17.949-17.947
				S15.331,3.621,25.227,3.621c9.898,0,17.949,8.053,17.949,17.949S35.125,39.518,25.227,39.518z"/>
		</g>
	</g>
	<circle opacity="0.5" fill="#FFFFFF" cx="25.227" cy="21.57" r="17.204"/>
	<g>
		<g>
			<g>
				<g>
					<rect x="24.824" y="19.264" fill="#3D3E3E" width="9.176" height="0.432"/>
				</g>
			</g>
		</g>
		<g>
			<g>
				<g>
					<rect x="24.824" y="22.133" fill="#3D3E3E" width="9.176" height="0.43"/>
				</g>
			</g>
		</g>
		<g>
			<g>
				<g>
					<rect x="24.824" y="25" fill="#3D3E3E" width="9.176" height="0.43"/>
				</g>
			</g>
		</g>
		<g>
			<g>
				<g>
					<circle fill="#3D3E3E" cx="23.104" cy="19.479" r="0.717"/>
				</g>
			</g>
		</g>
		<g>
			<g>
				<g>
					<circle fill="#3D3E3E" cx="23.104" cy="22.467" r="0.717"/>
				</g>
			</g>
		</g>
		<g>
			<g>
				<g>
					<circle fill="#3D3E3E" cx="23.104" cy="25.168" r="0.717"/>
				</g>
			</g>
		</g>
	</g>
	<g>
		<g>
			<path fill-rule="evenodd" clip-rule="evenodd" fill="#F6B21A" d="M25.227,2.967c-10.257,0-18.603,8.346-18.603,18.604
				s8.345,18.604,18.603,18.604c10.259,0,18.603-8.346,18.603-18.604S35.486,2.967,25.227,2.967z M25.227,38.266
				c-9.205,0-16.695-7.49-16.695-16.695s7.49-16.695,16.695-16.695c9.207,0,16.695,7.49,16.695,16.695S34.434,38.266,25.227,38.266z
				"/>
		</g>
	</g>
	<g>
		<path fill="#3D3E3E" d="M36.813,13.309h-18.95v11.131h-4.969v4.846h6.459v4.037l4.076-4.076h13.383V13.309z M35.926,28.359H24.317
			l1.498-1.498l-6.685-6.684v4.262h-0.38v-7.928h17.175V28.359z"/>
	</g>
</g>
</svg>
