<?xml version="1.0" encoding="utf-8"?>
<!-- Generator: Adobe Illustrator 16.0.0, SVG Export Plug-In . SVG Version: 6.00 Build 0)  -->
<!DOCTYPE svg PUBLIC "-//W3C//DTD SVG 1.1//EN" "http://www.w3.org/Graphics/SVG/1.1/DTD/svg11.dtd">
<svg version="1.1" id="Layer_1" xmlns="http://www.w3.org/2000/svg" xmlns:xlink="http://www.w3.org/1999/xlink" x="0px" y="0px"
	 width="45px" height="41px" viewBox="0 0 45 41" enable-background="new 0 0 45 41" xml:space="preserve">
<g>
  <circle fill="#F8B218" cx="21.5" cy="21" r="18" opacity=".5" />
	<polygon fill="#3D3E3E" points="18.584,19.397 24.074,13.541 19.074,13.541 11.084,21.396 11.084,21.396 11.084,21.396 
		11.084,21.397 11.084,21.397 18.908,29.458 23.908,29.458 18.584,23.396 31.916,23.396 31.916,21.397 31.916,21.396 31.916,19.397 
			"/>
	<g>
		<path fill-rule="evenodd" clip-rule="evenodd" fill="#3D3E3E" d="M21.5,2C10.748,2,2,10.748,2,21.5C2,32.253,10.748,41,21.5,41
			C32.252,41,41,32.253,41,21.5C41,10.748,32.252,2,21.5,2z M21.5,39C11.85,39,4,31.149,4,21.5S11.85,4,21.5,4
			C31.148,4,39,11.851,39,21.5S31.148,39,21.5,39z"/>
	</g>
</g>
</svg>
