<?xml version="1.0" encoding="utf-8"?>
<!-- Generator: Adobe Illustrator 16.0.0, SVG Export Plug-In . SVG Version: 6.00 Build 0)  -->
<!DOCTYPE svg PUBLIC "-//W3C//DTD SVG 1.1//EN" "http://www.w3.org/Graphics/SVG/1.1/DTD/svg11.dtd">
<svg version="1.1" id="Layer_1" xmlns="http://www.w3.org/2000/svg" xmlns:xlink="http://www.w3.org/1999/xlink" x="0px" y="0px"
	 width="31px" height="38px" viewBox="0 0 31 38" enable-background="new 0 0 31 38" xml:space="preserve">
<g>
	<g>
		<path fill="#F1EFEF" d="M4.609,29.724H1.27v-6.302h3.199v0.668H2.008v2.096h2.277v0.664H2.008v2.206h2.602V29.724z"/>
		<path fill="#F1EFEF" d="M6.465,29.724H5.744v-6.662h0.721V29.724z"/>
		<path fill="#F1EFEF" d="M8.662,29.724H7.941v-6.662h0.721V29.724z"/>
		<path fill="#F1EFEF" d="M10.51,24.081c-0.129,0-0.24-0.044-0.33-0.132c-0.092-0.088-0.137-0.199-0.137-0.334
			s0.045-0.246,0.137-0.336c0.09-0.09,0.201-0.135,0.33-0.135c0.131,0,0.244,0.045,0.336,0.135s0.139,0.201,0.139,0.336
			c0,0.129-0.047,0.238-0.139,0.33C10.754,24.035,10.641,24.081,10.51,24.081z M10.861,29.724h-0.721v-4.5h0.721V29.724z"/>
		<path fill="#F1EFEF" d="M13.076,29.073h-0.018v2.72h-0.721v-6.569h0.721v0.791h0.018c0.354-0.598,0.873-0.896,1.555-0.896
			c0.58,0,1.033,0.202,1.357,0.604c0.326,0.402,0.488,0.942,0.488,1.619c0,0.753-0.184,1.355-0.549,1.809
			c-0.367,0.452-0.867,0.679-1.504,0.679C13.842,29.829,13.393,29.577,13.076,29.073z M13.059,27.258v0.629
			c0,0.372,0.121,0.688,0.361,0.947c0.242,0.259,0.549,0.389,0.922,0.389c0.436,0,0.777-0.167,1.025-0.501s0.371-0.798,0.371-1.394
			c0-0.5-0.115-0.893-0.348-1.178c-0.23-0.283-0.545-0.426-0.939-0.426c-0.42,0-0.756,0.146-1.012,0.438
			C13.186,26.453,13.059,26.818,13.059,27.258z"/>
		<path fill="#F1EFEF" d="M17.373,29.561v-0.773c0.393,0.291,0.826,0.436,1.297,0.436c0.633,0,0.949-0.211,0.949-0.633
			c0-0.12-0.027-0.222-0.082-0.306c-0.053-0.083-0.127-0.157-0.219-0.222s-0.201-0.122-0.326-0.174
			c-0.123-0.051-0.258-0.104-0.4-0.16c-0.199-0.079-0.375-0.158-0.525-0.239c-0.152-0.081-0.277-0.172-0.379-0.272
			c-0.102-0.102-0.178-0.217-0.229-0.346s-0.076-0.279-0.076-0.452c0-0.211,0.049-0.397,0.145-0.561
			c0.098-0.162,0.227-0.299,0.387-0.408c0.162-0.11,0.346-0.192,0.551-0.249c0.207-0.055,0.42-0.083,0.641-0.083
			c0.389,0,0.738,0.067,1.045,0.202v0.729c-0.33-0.217-0.711-0.325-1.143-0.325c-0.135,0-0.256,0.016-0.363,0.046
			c-0.109,0.031-0.203,0.074-0.279,0.13c-0.078,0.056-0.139,0.123-0.182,0.2c-0.041,0.077-0.063,0.163-0.063,0.257
			c0,0.117,0.021,0.215,0.063,0.295c0.043,0.078,0.105,0.148,0.188,0.211c0.082,0.061,0.182,0.117,0.299,0.166
			c0.117,0.051,0.25,0.104,0.4,0.163c0.199,0.076,0.377,0.155,0.535,0.235s0.293,0.171,0.404,0.272
			c0.111,0.101,0.197,0.218,0.258,0.349c0.061,0.133,0.09,0.289,0.09,0.471c0,0.223-0.049,0.416-0.146,0.58
			c-0.1,0.164-0.23,0.301-0.395,0.408c-0.164,0.109-0.352,0.189-0.566,0.242c-0.213,0.053-0.438,0.079-0.672,0.079
			C18.115,29.829,17.713,29.74,17.373,29.561z"/>
		<path fill="#F1EFEF" d="M25.1,27.654h-3.178c0.012,0.5,0.146,0.887,0.404,1.16c0.258,0.271,0.613,0.408,1.064,0.408
			c0.506,0,0.973-0.167,1.396-0.501v0.677c-0.395,0.287-0.918,0.431-1.568,0.431c-0.635,0-1.135-0.204-1.498-0.613
			c-0.363-0.408-0.545-0.983-0.545-1.725c0-0.7,0.197-1.271,0.596-1.712c0.396-0.44,0.889-0.661,1.479-0.661
			c0.588,0,1.045,0.19,1.367,0.571S25.1,26.6,25.1,27.275V27.654z M24.361,27.043c-0.002-0.416-0.104-0.74-0.301-0.971
			c-0.197-0.232-0.473-0.348-0.824-0.348c-0.34,0-0.629,0.121-0.865,0.365c-0.238,0.242-0.385,0.561-0.439,0.953H24.361z"/>
	</g>
	<path fill="#F1EFEF" d="M12.834,2.5c5.6,0,10.332,3.357,10.332,7.333s-4.732,7.333-10.332,7.333C7.232,17.166,2.5,13.809,2.5,9.833
		S7.232,2.5,12.834,2.5 M12.834,0C5.746,0,0,4.402,0,9.833s5.746,9.833,12.834,9.833s12.832-4.402,12.832-9.833S19.922,0,12.834,0
		L12.834,0z"/>
</g>
</svg>
