<?xml version="1.0" encoding="utf-8"?>
<!-- Generator: Adobe Illustrator 16.0.0, SVG Export Plug-In . SVG Version: 6.00 Build 0)  -->
<!DOCTYPE svg PUBLIC "-//W3C//DTD SVG 1.1//EN" "http://www.w3.org/Graphics/SVG/1.1/DTD/svg11.dtd">
<svg version="1.1" id="Layer_1" xmlns="http://www.w3.org/2000/svg" xmlns:xlink="http://www.w3.org/1999/xlink" x="0px" y="0px"
	 width="43px" height="37px" viewBox="0 0 43 37" enable-background="new 0 0 43 37" xml:space="preserve">
<g>
	<g>
		<path fill="#F1EFEF" d="M4.518,29.392H3.639l-1.055-1.767c-0.096-0.164-0.189-0.304-0.281-0.42
			c-0.09-0.115-0.184-0.21-0.279-0.283s-0.197-0.127-0.307-0.16s-0.234-0.051-0.371-0.051H0.738v2.681H0V23.09h1.881
			c0.275,0,0.529,0.035,0.764,0.104c0.232,0.068,0.434,0.174,0.605,0.314s0.305,0.315,0.402,0.524
			c0.096,0.21,0.145,0.455,0.145,0.736c0,0.22-0.033,0.421-0.098,0.604c-0.066,0.184-0.16,0.346-0.281,0.49
			c-0.123,0.143-0.27,0.266-0.439,0.366c-0.172,0.102-0.365,0.18-0.578,0.235v0.018c0.105,0.047,0.195,0.101,0.273,0.16
			c0.078,0.061,0.152,0.131,0.223,0.213s0.139,0.176,0.209,0.279c0.068,0.104,0.145,0.225,0.23,0.363L4.518,29.392z M0.738,23.758
			v2.285H1.74c0.186,0,0.355-0.027,0.512-0.084c0.156-0.055,0.293-0.135,0.406-0.239c0.115-0.104,0.205-0.231,0.27-0.382
			s0.096-0.32,0.096-0.508c0-0.337-0.109-0.6-0.326-0.789c-0.219-0.188-0.535-0.283-0.947-0.283H0.738z"/>
		<path fill="#F1EFEF" d="M8.672,27.322H5.494c0.012,0.5,0.146,0.887,0.404,1.16c0.258,0.271,0.611,0.408,1.063,0.408
			c0.508,0,0.973-0.167,1.398-0.501v0.677c-0.396,0.287-0.918,0.431-1.568,0.431c-0.637,0-1.137-0.204-1.5-0.613
			c-0.363-0.408-0.545-0.983-0.545-1.725c0-0.7,0.199-1.271,0.596-1.712c0.396-0.44,0.891-0.661,1.479-0.661
			c0.59,0,1.045,0.19,1.367,0.571s0.484,0.91,0.484,1.586V27.322z M7.934,26.711c-0.004-0.416-0.104-0.74-0.303-0.971
			c-0.197-0.232-0.471-0.348-0.822-0.348c-0.34,0-0.629,0.121-0.867,0.365C5.705,26,5.559,26.318,5.502,26.711H7.934z"/>
		<path fill="#F1EFEF" d="M12.846,29.186c-0.346,0.207-0.756,0.312-1.23,0.312c-0.641,0-1.158-0.209-1.553-0.626
			c-0.395-0.418-0.592-0.959-0.592-1.624c0-0.741,0.213-1.337,0.639-1.786c0.424-0.449,0.99-0.675,1.699-0.675
			c0.396,0,0.744,0.073,1.047,0.22v0.738c-0.334-0.234-0.691-0.352-1.072-0.352c-0.461,0-0.838,0.165-1.133,0.494
			c-0.293,0.33-0.441,0.763-0.441,1.299c0,0.527,0.139,0.943,0.416,1.248s0.648,0.457,1.113,0.457c0.393,0,0.762-0.131,1.107-0.391
			V29.186z"/>
		<path fill="#F1EFEF" d="M16.041,29.348c-0.17,0.094-0.393,0.141-0.672,0.141c-0.787,0-1.182-0.439-1.182-1.318v-2.663h-0.773
			v-0.615h0.773v-1.099l0.721-0.232v1.331h1.133v0.615h-1.133v2.536c0,0.301,0.051,0.517,0.154,0.646
			c0.102,0.129,0.271,0.193,0.51,0.193c0.182,0,0.338-0.05,0.469-0.149V29.348z"/>
		<path fill="#F1EFEF" d="M20.242,29.392h-0.721v-0.703h-0.018c-0.313,0.539-0.773,0.809-1.383,0.809
			c-0.449,0-0.801-0.118-1.052-0.356c-0.254-0.236-0.381-0.552-0.381-0.944c0-0.841,0.496-1.33,1.486-1.468l1.348-0.189
			c0-0.764-0.309-1.146-0.926-1.146c-0.543,0-1.031,0.185-1.469,0.554v-0.738c0.443-0.281,0.953-0.422,1.529-0.422
			c1.059,0,1.586,0.56,1.586,1.679V29.392z M19.521,27.115l-1.084,0.149c-0.334,0.047-0.586,0.13-0.756,0.248
			c-0.17,0.119-0.256,0.329-0.256,0.631c0,0.22,0.078,0.399,0.236,0.538c0.156,0.14,0.365,0.209,0.625,0.209
			c0.357,0,0.652-0.125,0.887-0.376c0.232-0.25,0.348-0.567,0.348-0.951V27.115z"/>
		<path fill="#F1EFEF" d="M25.353,29.392h-0.721v-2.566c0-0.955-0.348-1.433-1.045-1.433c-0.361,0-0.658,0.136-0.895,0.406
			c-0.236,0.271-0.354,0.613-0.354,1.026v2.566h-0.721v-4.5h0.721v0.747h0.018c0.34-0.568,0.832-0.853,1.477-0.853
			c0.492,0,0.869,0.159,1.129,0.477c0.262,0.318,0.391,0.777,0.391,1.378V29.392z"/>
		<path fill="#F1EFEF" d="M30.57,29.031c0,1.652-0.791,2.479-2.373,2.479c-0.557,0-1.043-0.105-1.459-0.316v-0.721
			c0.508,0.281,0.99,0.422,1.451,0.422c1.107,0,1.66-0.589,1.66-1.767v-0.492h-0.018c-0.342,0.574-0.857,0.861-1.547,0.861
			c-0.559,0-1.01-0.2-1.352-0.6c-0.34-0.4-0.512-0.937-0.512-1.61c0-0.766,0.184-1.373,0.553-1.824
			c0.367-0.451,0.871-0.677,1.51-0.677c0.605,0,1.055,0.243,1.348,0.729h0.018v-0.624h0.721V29.031z M29.849,27.357v-0.664
			c0-0.357-0.121-0.664-0.361-0.918c-0.242-0.256-0.543-0.383-0.904-0.383c-0.445,0-0.793,0.162-1.045,0.485
			c-0.252,0.324-0.379,0.777-0.379,1.36c0,0.501,0.121,0.902,0.363,1.202s0.563,0.45,0.961,0.45c0.404,0,0.732-0.144,0.986-0.431
			C29.722,28.173,29.849,27.805,29.849,27.357z"/>
		<path fill="#F1EFEF" d="M32.769,29.392h-0.721v-6.662h0.721V29.392z"/>
		<path fill="#F1EFEF" d="M37.863,27.322h-3.178c0.012,0.5,0.146,0.887,0.404,1.16c0.258,0.271,0.611,0.408,1.063,0.408
			c0.508,0,0.973-0.167,1.398-0.501v0.677c-0.396,0.287-0.918,0.431-1.568,0.431c-0.637,0-1.137-0.204-1.5-0.613
			c-0.363-0.408-0.545-0.983-0.545-1.725c0-0.7,0.199-1.271,0.596-1.712c0.396-0.44,0.891-0.661,1.479-0.661
			c0.59,0,1.045,0.19,1.367,0.571s0.484,0.91,0.484,1.586V27.322z M37.125,26.711c-0.004-0.416-0.104-0.74-0.303-0.971
			c-0.197-0.232-0.471-0.348-0.822-0.348c-0.34,0-0.629,0.121-0.867,0.365c-0.236,0.242-0.383,0.561-0.439,0.953H37.125z"/>
	</g>
	<path fill="#F1EFEF" d="M25.875,2.5v14.667H11.541V2.5H25.875 M28.375,0H9.041v19.667h19.333V0L28.375,0z"/>
</g>
</svg>
