<?xml version="1.0" encoding="utf-8"?>
<!-- Generator: Adobe Illustrator 16.0.0, SVG Export Plug-In . SVG Version: 6.00 Build 0)  -->
<!DOCTYPE svg PUBLIC "-//W3C//DTD SVG 1.1//EN" "http://www.w3.org/Graphics/SVG/1.1/DTD/svg11.dtd">
<svg version="1.1" id="Layer_1" xmlns="http://www.w3.org/2000/svg" xmlns:xlink="http://www.w3.org/1999/xlink" x="0px" y="0px"
	 width="29px" height="43px" viewBox="0 0 29 43" enable-background="new 0 0 29 43" xml:space="preserve">
<g>
	<g>
		<g>
			<path fill="#F1F0F0" d="M0,34.654v-0.871c0.1,0.088,0.219,0.168,0.358,0.238s0.286,0.129,0.439,0.178
				c0.154,0.049,0.309,0.086,0.464,0.111c0.155,0.027,0.299,0.04,0.431,0.04c0.454,0,0.793-0.084,1.018-0.253
				c0.224-0.168,0.336-0.41,0.336-0.727c0-0.17-0.037-0.318-0.112-0.444c-0.074-0.126-0.178-0.241-0.31-0.345
				s-0.288-0.203-0.468-0.299c-0.181-0.096-0.375-0.195-0.583-0.301c-0.22-0.111-0.425-0.225-0.615-0.339s-0.356-0.24-0.497-0.378
				s-0.251-0.293-0.332-0.469c-0.081-0.174-0.121-0.378-0.121-0.612c0-0.287,0.063-0.536,0.189-0.749s0.292-0.388,0.497-0.525
				s0.438-0.24,0.701-0.308s0.53-0.101,0.802-0.101c0.621,0,1.074,0.074,1.358,0.224v0.831c-0.372-0.258-0.85-0.387-1.433-0.387
				c-0.161,0-0.322,0.017-0.483,0.051c-0.161,0.033-0.305,0.088-0.431,0.164s-0.229,0.174-0.308,0.295
				c-0.079,0.119-0.119,0.266-0.119,0.439c0,0.16,0.03,0.3,0.09,0.417c0.06,0.117,0.148,0.224,0.266,0.321
				c0.117,0.096,0.26,0.189,0.429,0.281c0.168,0.09,0.362,0.189,0.582,0.299c0.226,0.111,0.439,0.229,0.642,0.352
				s0.379,0.259,0.532,0.408s0.273,0.314,0.363,0.496c0.089,0.182,0.134,0.391,0.134,0.625c0,0.311-0.061,0.572-0.183,0.789
				c-0.122,0.215-0.285,0.39-0.492,0.524C2.938,34.766,2.7,34.864,2.43,34.923c-0.27,0.061-0.554,0.09-0.853,0.09
				c-0.1,0-0.223-0.008-0.369-0.023c-0.146-0.017-0.296-0.039-0.448-0.07s-0.297-0.068-0.433-0.115
				C0.191,34.759,0.082,34.708,0,34.654z"/>
			<path fill="#F1F0F0" d="M6.794,34.865c-0.17,0.094-0.394,0.141-0.672,0.141c-0.788,0-1.182-0.439-1.182-1.318v-2.664H4.167
				v-0.615H4.94V29.31l0.721-0.233v1.331h1.134v0.615H5.661v2.536c0,0.302,0.051,0.517,0.154,0.646s0.272,0.193,0.51,0.193
				c0.182,0,0.338-0.049,0.47-0.148V34.865z"/>
			<path fill="#F1F0F0" d="M10.122,31.138c-0.126-0.098-0.308-0.146-0.545-0.146c-0.308,0-0.564,0.146-0.771,0.435
				c-0.206,0.291-0.31,0.686-0.31,1.188v2.293H7.775v-4.5h0.721v0.928h0.018c0.103-0.316,0.259-0.563,0.47-0.74
				S9.43,30.33,9.691,30.33c0.188,0,0.331,0.02,0.431,0.061V31.138z"/>
			<path fill="#F1F0F0" d="M12.684,35.013c-0.665,0-1.196-0.209-1.593-0.631c-0.397-0.42-0.596-0.977-0.596-1.672
				c0-0.756,0.207-1.346,0.62-1.771s0.971-0.638,1.674-0.638c0.671,0,1.194,0.207,1.571,0.62c0.376,0.413,0.564,0.985,0.564,1.718
				c0,0.719-0.203,1.293-0.608,1.725C13.911,34.798,13.367,35.013,12.684,35.013z M12.737,30.91c-0.463,0-0.829,0.157-1.099,0.473
				c-0.27,0.314-0.404,0.748-0.404,1.303c0,0.533,0.136,0.953,0.409,1.261s0.637,0.462,1.094,0.462c0.466,0,0.824-0.151,1.074-0.453
				c0.251-0.302,0.376-0.73,0.376-1.287c0-0.563-0.125-0.996-0.376-1.301C13.561,31.062,13.203,30.91,12.737,30.91z"/>
			<path fill="#F1F0F0" d="M19.83,34.908h-1.011l-1.986-2.162h-0.018v2.162h-0.721v-6.662h0.721v4.224h0.018l1.89-2.062h0.945
				L17.58,32.58L19.83,34.908z"/>
			<path fill="#F1F0F0" d="M24.023,32.838h-3.178c0.012,0.501,0.146,0.888,0.404,1.16s0.612,0.409,1.063,0.409
				c0.507,0,0.973-0.168,1.397-0.502v0.678c-0.396,0.287-0.918,0.43-1.568,0.43c-0.637,0-1.136-0.203-1.499-0.613
				c-0.363-0.408-0.545-0.982-0.545-1.725c0-0.699,0.198-1.27,0.596-1.711c0.396-0.441,0.89-0.662,1.479-0.662
				s1.044,0.191,1.366,0.572s0.484,0.909,0.484,1.586V32.838z M23.285,32.228c-0.004-0.416-0.104-0.74-0.302-0.972
				c-0.197-0.231-0.472-0.347-0.823-0.347c-0.34,0-0.629,0.121-0.866,0.364s-0.384,0.562-0.439,0.954H23.285z"/>
		</g>
	</g>
	<g>
		<g>
			<g>
				<rect x="2.475" y="0.714" fill-rule="evenodd" clip-rule="evenodd" fill="#FCEE21" width="18.92" height="18.92"/>
			</g>
			<g>
				<path d="M20.681,1.428v17.492H3.188V1.428H20.681 M22.109,0h-1.428H3.188H1.76v1.428v17.492v1.428h1.428h17.493h1.428v-1.428
					V1.428V0L22.109,0z"/>
			</g>
			<g>
				<path fill="#FFFFFF" d="M20.681,1.428v17.492H3.188V1.428H20.681 M21.395,0.714h-0.714H3.188H2.475v0.714v17.492v0.715h0.713
					h17.493h0.714v-0.715V1.428V0.714L21.395,0.714z"/>
			</g>
		</g>
		<g>
			<g>
				<rect x="7.472" y="5.711" fill-rule="evenodd" clip-rule="evenodd" fill="#414142" width="8.925" height="8.926"/>
			</g>
			<g>
				<path fill="#FFFFFF" d="M16.932,15.172H6.937V5.176h9.995V15.172z M8.008,14.101h7.854V6.247H8.008V14.101z"/>
			</g>
			<g>
				<path fill="#231F20" d="M16.397,5.711v8.926H7.472V5.711H16.397 M17.111,4.998h-0.714H7.472H6.758v0.713v8.926v0.713h0.714
					h8.925h0.714v-0.713V5.711V4.998L17.111,4.998z"/>
			</g>
		</g>
	</g>
</g>
</svg>
