<?xml version="1.0" encoding="utf-8"?>
<!-- Generator: Adobe Illustrator 16.0.0, SVG Export Plug-In . SVG Version: 6.00 Build 0)  -->
<!DOCTYPE svg PUBLIC "-//W3C//DTD SVG 1.1//EN" "http://www.w3.org/Graphics/SVG/1.1/DTD/svg11.dtd">
<svg version="1.1" id="Layer_1" xmlns="http://www.w3.org/2000/svg" xmlns:xlink="http://www.w3.org/1999/xlink" x="0px" y="0px"
	 width="30px" height="33px" viewBox="0 0 30 33" enable-background="new 0 0 30 33" xml:space="preserve">
<g>
	<g>
		<path fill="#F1EFEE" d="M0,28.636v-0.87c0.1,0.088,0.219,0.167,0.357,0.237s0.286,0.13,0.439,0.178
			c0.154,0.049,0.309,0.086,0.464,0.112s0.299,0.04,0.431,0.04c0.454,0,0.793-0.084,1.018-0.253
			c0.224-0.169,0.336-0.411,0.336-0.728c0-0.17-0.037-0.318-0.112-0.443c-0.074-0.127-0.178-0.241-0.31-0.346
			c-0.132-0.104-0.288-0.203-0.468-0.299c-0.181-0.095-0.374-0.195-0.583-0.301c-0.219-0.111-0.424-0.225-0.615-0.338
			c-0.189-0.115-0.355-0.24-0.496-0.379c-0.141-0.137-0.252-0.293-0.332-0.468c-0.08-0.174-0.121-0.378-0.121-0.612
			c0-0.287,0.063-0.537,0.189-0.75c0.126-0.212,0.291-0.387,0.496-0.525c0.205-0.137,0.439-0.24,0.701-0.307
			c0.262-0.068,0.529-0.102,0.803-0.102c0.621,0,1.073,0.074,1.357,0.225v0.83c-0.372-0.258-0.85-0.387-1.433-0.387
			c-0.161,0-0.322,0.018-0.483,0.051s-0.305,0.088-0.431,0.164S0.979,23.541,0.9,23.661s-0.119,0.267-0.119,0.439
			c0,0.161,0.03,0.301,0.091,0.418c0.06,0.117,0.148,0.224,0.266,0.32s0.26,0.19,0.429,0.281c0.168,0.091,0.362,0.19,0.582,0.299
			c0.226,0.111,0.439,0.229,0.642,0.352s0.38,0.26,0.532,0.408c0.152,0.15,0.272,0.315,0.362,0.497
			c0.089,0.182,0.134,0.39,0.134,0.624c0,0.311-0.061,0.573-0.183,0.789c-0.122,0.215-0.285,0.391-0.492,0.525
			c-0.206,0.135-0.444,0.232-0.714,0.292s-0.554,0.09-0.853,0.09c-0.1,0-0.223-0.009-0.369-0.024s-0.296-0.039-0.448-0.07
			c-0.152-0.03-0.297-0.068-0.433-0.114C0.19,28.742,0.082,28.691,0,28.636z"/>
		<path fill="#F1EFEE" d="M6.794,28.847c-0.17,0.094-0.394,0.141-0.673,0.141c-0.787,0-1.182-0.439-1.182-1.318v-2.663H4.166v-0.615
			h0.773v-1.099L5.66,23.06v1.331h1.134v0.615H5.66v2.536c0,0.301,0.051,0.517,0.154,0.646c0.102,0.129,0.271,0.193,0.51,0.193
			c0.182,0,0.338-0.05,0.47-0.149V28.847z"/>
		<path fill="#F1EFEE" d="M10.121,25.12c-0.126-0.097-0.308-0.145-0.545-0.145c-0.308,0-0.564,0.145-0.771,0.435
			c-0.206,0.29-0.31,0.686-0.31,1.187v2.294H7.774v-4.5h0.721v0.927h0.018c0.103-0.316,0.259-0.563,0.47-0.74
			C9.193,24.4,9.43,24.312,9.69,24.312c0.188,0,0.331,0.021,0.431,0.062V25.12z"/>
		<path fill="#F1EFEE" d="M12.684,28.996c-0.665,0-1.196-0.21-1.593-0.631c-0.397-0.42-0.596-0.978-0.596-1.672
			c0-0.756,0.206-1.347,0.62-1.771c0.412-0.426,0.971-0.638,1.674-0.638c0.671,0,1.194,0.206,1.571,0.62
			c0.376,0.412,0.564,0.985,0.564,1.718c0,0.718-0.203,1.293-0.608,1.725C13.91,28.78,13.366,28.996,12.684,28.996z M12.736,24.892
			c-0.463,0-0.829,0.158-1.099,0.473s-0.404,0.749-0.404,1.303c0,0.533,0.136,0.953,0.409,1.262
			c0.271,0.307,0.637,0.461,1.094,0.461c0.466,0,0.824-0.15,1.074-0.453c0.251-0.301,0.376-0.73,0.376-1.287
			c0-0.563-0.125-0.996-0.376-1.301C13.561,25.044,13.202,24.892,12.736,24.892z"/>
		<path fill="#F1EFEE" d="M19.829,28.891h-1.011l-1.986-2.162h-0.018v2.162h-0.721v-6.662h0.721v4.224h0.018l1.89-2.062h0.944
			l-2.087,2.171L19.829,28.891z"/>
		<path fill="#F1EFEE" d="M24.021,26.821h-3.177c0.012,0.5,0.146,0.887,0.404,1.16c0.258,0.271,0.612,0.408,1.063,0.408
			c0.507,0,0.973-0.167,1.397-0.501v0.677c-0.396,0.287-0.919,0.431-1.569,0.431c-0.635,0-1.135-0.204-1.498-0.613
			c-0.363-0.408-0.545-0.983-0.545-1.725c0-0.7,0.198-1.271,0.596-1.712c0.396-0.44,0.89-0.661,1.479-0.661s1.045,0.19,1.367,0.571
			s0.482,0.91,0.482,1.586V26.821z M23.283,26.21c-0.002-0.416-0.103-0.74-0.301-0.971c-0.197-0.232-0.473-0.348-0.824-0.348
			c-0.34,0-0.628,0.121-0.865,0.365c-0.237,0.242-0.384,0.561-0.439,0.953H23.283z"/>
	</g>
	<g>
		<rect x="2.268" fill="#F1EFEE" width="19.332" height="1"/>
	</g>
	<g>
		<rect x="2.268" y="7.5" fill="#F1EFEE" width="19.332" height="2"/>
	</g>
	<g>
		<rect x="2.268" y="15" fill="#F1EFEE" width="19.332" height="3"/>
	</g>
</g>
</svg>
