<?xml version="1.0" encoding="utf-8"?>
<!-- Generator: Adobe Illustrator 16.0.0, SVG Export Plug-In . SVG Version: 6.00 Build 0)  -->
<!DOCTYPE svg PUBLIC "-//W3C//DTD SVG 1.1//EN" "http://www.w3.org/Graphics/SVG/1.1/DTD/svg11.dtd">
<svg version="1.1" id="Layer_1" xmlns="http://www.w3.org/2000/svg" xmlns:xlink="http://www.w3.org/1999/xlink" x="0px" y="0px"
	 width="37px" height="42px" viewBox="0 0 37 42" enable-background="new 0 0 37 42" xml:space="preserve">
<g>
	<g>
		<g>
			<path fill="#F1F0F0" d="M4.372,29.139H2.553v5.633H1.814v-5.633H0v-0.668h4.372V29.139z"/>
			<path fill="#F1F0F0" d="M6.847,31.002c-0.126-0.098-0.308-0.146-0.545-0.146c-0.308,0-0.564,0.146-0.771,0.435
				c-0.206,0.291-0.31,0.686-0.31,1.188v2.293H4.5v-4.5h0.721V31.2h0.018c0.103-0.316,0.26-0.563,0.471-0.74
				s0.446-0.266,0.707-0.266c0.188,0,0.331,0.02,0.431,0.061V31.002z"/>
			<path fill="#F1F0F0" d="M8.016,29.129c-0.129,0-0.238-0.043-0.329-0.131s-0.136-0.199-0.136-0.334s0.045-0.247,0.136-0.336
				c0.091-0.09,0.2-0.135,0.329-0.135c0.133,0,0.244,0.045,0.336,0.135c0.094,0.089,0.139,0.201,0.139,0.336
				c0,0.129-0.045,0.238-0.139,0.329C8.26,29.084,8.148,29.129,8.016,29.129z M8.367,34.772H7.646v-4.5h0.721V34.772z"/>
			<path fill="#F1F0F0" d="M13.066,34.772h-0.721v-0.703h-0.018c-0.314,0.539-0.775,0.809-1.385,0.809
				c-0.448,0-0.799-0.118-1.053-0.355s-0.38-0.553-0.38-0.945c0-0.84,0.495-1.33,1.485-1.467l1.35-0.189
				c0-0.765-0.31-1.146-0.928-1.146c-0.542,0-1.031,0.184-1.468,0.553v-0.738c0.442-0.281,0.952-0.422,1.529-0.422
				c1.058,0,1.587,0.561,1.587,1.68V34.772z M12.346,32.497l-1.086,0.148c-0.334,0.047-0.586,0.131-0.756,0.248
				c-0.17,0.119-0.255,0.33-0.255,0.631c0,0.221,0.078,0.4,0.235,0.539c0.156,0.139,0.365,0.209,0.626,0.209
				c0.357,0,0.652-0.125,0.886-0.377c0.232-0.25,0.35-0.566,0.35-0.951V32.497z"/>
			<path fill="#F1F0F0" d="M18.177,34.772h-0.721v-2.566c0-0.955-0.349-1.432-1.046-1.432c-0.36,0-0.658,0.135-0.895,0.406
				s-0.354,0.613-0.354,1.025v2.566h-0.721v-4.5h0.721v0.748h0.018c0.34-0.568,0.832-0.854,1.477-0.854
				c0.492,0,0.869,0.16,1.129,0.477c0.262,0.318,0.392,0.777,0.392,1.379V34.772z"/>
			<path fill="#F1F0F0" d="M23.394,34.413c0,1.652-0.791,2.479-2.373,2.479c-0.557,0-1.043-0.105-1.459-0.316v-0.721
				c0.507,0.281,0.99,0.422,1.45,0.422c1.107,0,1.661-0.59,1.661-1.768v-0.492h-0.018c-0.343,0.574-0.858,0.861-1.547,0.861
				c-0.56,0-1.011-0.199-1.352-0.6s-0.512-0.937-0.512-1.61c0-0.765,0.184-1.372,0.552-1.823c0.367-0.451,0.871-0.678,1.51-0.678
				c0.605,0,1.056,0.244,1.349,0.73h0.018v-0.625h0.721V34.413z M22.673,32.738v-0.663c0-0.357-0.121-0.664-0.362-0.919
				c-0.242-0.255-0.543-0.382-0.903-0.382c-0.445,0-0.794,0.162-1.046,0.484c-0.252,0.324-0.378,0.777-0.378,1.361
				c0,0.5,0.121,0.901,0.362,1.201c0.242,0.301,0.563,0.451,0.961,0.451c0.404,0,0.732-0.145,0.986-0.432
				C22.546,33.553,22.673,33.186,22.673,32.738z"/>
			<path fill="#F1F0F0" d="M25.592,34.772h-0.721V28.11h0.721V34.772z"/>
			<path fill="#F1F0F0" d="M30.686,32.703h-3.178c0.012,0.501,0.146,0.888,0.404,1.16s0.612,0.409,1.063,0.409
				c0.507,0,0.973-0.168,1.397-0.502v0.678c-0.396,0.287-0.918,0.43-1.568,0.43c-0.637,0-1.136-0.203-1.499-0.613
				c-0.363-0.408-0.545-0.982-0.545-1.725c0-0.699,0.198-1.27,0.596-1.711c0.396-0.441,0.89-0.662,1.479-0.662
				s1.044,0.191,1.366,0.572s0.484,0.909,0.484,1.586V32.703z M29.947,32.092c-0.004-0.416-0.104-0.74-0.302-0.972
				c-0.197-0.231-0.472-0.347-0.823-0.347c-0.34,0-0.629,0.121-0.866,0.364s-0.384,0.562-0.439,0.954H29.947z"/>
		</g>
	</g>
	<g>
		<path fill="#F1EFEF" d="M26.571,19.28H4.31L15.44,0L26.571,19.28z M6.907,17.78h17.066L15.44,3L6.907,17.78z"/>
	</g>
</g>
</svg>
